<svg width="23" height="23" viewBox="0 0 23 23" fill="none" xmlns="http://www.w3.org/2000/svg">
<path d="M4.60962 18.1784H5.47095C6.19789 18.1784 6.90157 18.4495 7.5686 18.9987L7.85181 19.2506C7.87716 19.2749 7.88412 19.3114 7.87231 19.3424L7.85474 19.3708C7.82271 19.4044 7.76928 19.4058 7.7356 19.3737H7.73657C7.03404 18.7006 6.27107 18.3483 5.47095 18.3483H4.60962C3.77008 18.3484 2.96514 18.7484 2.25317 19.4626C1.54146 20.1766 0.915031 21.2103 0.427002 22.4967L0.354736 22.6891H7.76587L7.77759 22.6872C7.78381 22.6861 7.78942 22.6852 7.79419 22.6852H9.84302C9.86908 22.6853 9.89281 22.6981 9.90845 22.7184L9.92114 22.7409C9.9217 22.7425 9.92273 22.7438 9.9231 22.7448V22.7467L9.92407 22.7477L9.927 22.7878L9.91235 22.8239H9.91138C9.89571 22.8455 9.87088 22.858 9.84399 22.8581H0.237549C0.224381 22.8581 0.211136 22.8553 0.199463 22.8493L0.169189 22.8229C0.161489 22.8121 0.156359 22.799 0.154541 22.7858L0.158447 22.7458C0.58256 21.5388 1.13583 20.5136 1.76685 19.7497L2.04224 19.4381C2.83165 18.606 3.71993 18.1785 4.60962 18.1784Z" fill="#001B48" stroke="#4A94D0" stroke-width="0.283293"/>
<path d="M4.7627 2.84686H18.2373C18.283 2.84686 18.3213 2.88461 18.3213 2.93182V22.7707C18.3212 22.8175 18.2833 22.8547 18.2373 22.8547H9.84277C9.81628 22.8547 9.79188 22.842 9.77637 22.8215L9.76367 22.799C9.28278 21.4318 8.63916 20.3029 7.88867 19.5246L7.7373 19.3742L7.71777 19.3459C7.70921 19.3257 7.70904 19.303 7.7168 19.2824L7.73438 19.2541C7.75807 19.2291 7.79385 19.2212 7.82422 19.2326L7.85254 19.2512C8.64931 20.013 9.34635 21.1633 9.86816 22.592L9.90234 22.6857H18.1543V3.01678H4.84668V18.2629C4.84668 18.3101 4.80839 18.3478 4.7627 18.3478C4.71696 18.3478 4.67871 18.3101 4.67871 18.2629V2.93182C4.67871 2.88461 4.71696 2.84686 4.7627 2.84686Z" fill="#001B48" stroke="#4A94D0" stroke-width="0.283293"/>
<path d="M7.79492 14.1187H15.2061C15.2518 14.1187 15.29 14.1564 15.29 14.2036V22.7701C15.2896 22.8176 15.2515 22.8548 15.2061 22.855H9.84277C9.81639 22.855 9.7919 22.8421 9.77637 22.8218L9.76367 22.7984L9.56348 22.2652C9.10988 21.1371 8.5391 20.1995 7.88867 19.5249L7.7373 19.3736L7.71777 19.3462C7.7133 19.3358 7.71094 19.3239 7.71094 19.312V14.2036C7.71094 14.1564 7.74919 14.1187 7.79492 14.1187ZM7.87793 19.2759L7.91992 19.3169C8.68836 20.079 9.36157 21.2049 9.86816 22.5923L9.90234 22.6851H15.1221V14.2886H7.87793V19.2759Z" fill="#001B48" stroke="#4A94D0" stroke-width="0.283293"/>
<path d="M18.2378 7.58099H22.7749C22.8205 7.58122 22.8579 7.61888 22.8579 7.66595V22.7704C22.8577 22.8176 22.8205 22.8542 22.7749 22.8544H18.2378C18.1922 22.8544 18.154 22.8175 18.1538 22.7704V7.66595C18.1538 7.61874 18.1921 7.58099 18.2378 7.58099ZM18.3218 22.6855H22.6909V7.75092H18.3218V22.6855Z" fill="#001B48" stroke="#4A94D0" stroke-width="0.283293"/>
<path d="M19.5405 8.88837H21.3374C21.383 8.88853 21.4214 8.92621 21.4214 8.97333V10.777C21.4212 10.8242 21.383 10.8609 21.3374 10.861H19.5405C19.4949 10.861 19.4568 10.8241 19.4565 10.777V8.97333C19.4565 8.92611 19.4948 8.88837 19.5405 8.88837ZM19.6245 10.6921H21.2534V9.05829H19.6245V10.6921Z" fill="#001B48" stroke="#4A94D0" stroke-width="0.283293"/>
<path d="M19.5405 12.2704H21.3374C21.383 12.2705 21.4214 12.3082 21.4214 12.3553V14.1591C21.4212 14.206 21.3829 14.2429 21.3374 14.243H19.5405C19.4949 14.243 19.4568 14.2061 19.4565 14.1591V12.3553C19.4565 12.3081 19.4948 12.2704 19.5405 12.2704ZM19.6245 14.0741H21.2534V12.4403H19.6245V14.0741Z" fill="#001B48" stroke="#4A94D0" stroke-width="0.283293"/>
<path d="M19.5405 15.6519H21.3374C21.383 15.6521 21.4214 15.6898 21.4214 15.7369V17.5406C21.4212 17.5875 21.3829 17.6244 21.3374 17.6246H19.5405C19.4949 17.6246 19.4568 17.5876 19.4565 17.5406V15.7369C19.4565 15.6897 19.4948 15.6519 19.5405 15.6519ZM19.6245 17.4556H21.2534V15.8218H19.6245V17.4556Z" fill="#001B48" stroke="#4A94D0" stroke-width="0.283293"/>
<path d="M19.5405 19.0335H21.3374C21.383 19.0336 21.4214 19.0713 21.4214 19.1184V20.9221C21.4212 20.9691 21.3829 21.006 21.3374 21.0061H19.5405C19.4949 21.0061 19.4568 20.9692 19.4565 20.9221V19.1184C19.4565 19.0712 19.4948 19.0335 19.5405 19.0335ZM19.6245 20.8372H21.2534V19.2034H19.6245V20.8372Z" fill="#001B48" stroke="#4A94D0" stroke-width="0.283293"/>
<path d="M4.76538 3.47791C4.81093 3.47813 4.84839 3.51579 4.84839 3.56287V18.1947C4.84818 18.2416 4.81081 18.2785 4.76538 18.2787C4.71977 18.2787 4.6816 18.2417 4.6814 18.1947V7.75037H0.312256V22.6859H4.76538C4.81093 22.6861 4.84839 22.7238 4.84839 22.7709C4.84819 22.8174 4.81117 22.8546 4.76538 22.8549H0.228271C0.182536 22.8549 0.144287 22.8171 0.144287 22.7699V7.66541C0.144487 7.61836 0.182658 7.58142 0.228271 7.58142H4.67847V7.43982L4.6814 3.56287L4.68823 3.52966C4.7011 3.49921 4.73108 3.47791 4.76538 3.47791Z" fill="#001B48" stroke="#4A94D0" stroke-width="0.283293"/>
<path d="M1.53076 8.88837H3.32764C3.37324 8.88853 3.41162 8.92621 3.41162 8.97333V10.777C3.41139 10.8242 3.37328 10.8609 3.32764 10.861H1.53076C1.48517 10.861 1.44701 10.8241 1.44678 10.777V8.97333C1.44678 8.92611 1.48503 8.88837 1.53076 8.88837ZM1.61475 10.6921H3.24365V9.05829H1.61475V10.6921Z" fill="#001B48" stroke="#4A94D0" stroke-width="0.283293"/>
<path d="M1.53076 12.2704H3.32764C3.37324 12.2705 3.41162 12.3082 3.41162 12.3553V14.1591C3.41139 14.206 3.3731 14.2429 3.32764 14.243H1.53076C1.48517 14.243 1.44701 14.2061 1.44678 14.1591V12.3553C1.44678 12.3081 1.48503 12.2704 1.53076 12.2704ZM1.61475 14.0741H3.24365V12.4403H1.61475V14.0741Z" fill="#001B48" stroke="#4A94D0" stroke-width="0.283293"/>
<path d="M1.53076 15.6519H3.32764C3.37324 15.6521 3.41162 15.6898 3.41162 15.7369V17.5406C3.41139 17.5875 3.3731 17.6244 3.32764 17.6246H1.53076C1.48517 17.6246 1.44701 17.5876 1.44678 17.5406V15.7369C1.44678 15.6897 1.48503 15.6519 1.53076 15.6519ZM1.61475 17.4556H3.24365V15.8218H1.61475V17.4556Z" fill="#001B48" stroke="#4A94D0" stroke-width="0.283293"/>
<path d="M6.11011 0.141602H16.8904C16.936 0.14176 16.9744 0.179445 16.9744 0.226562V2.93164C16.9743 2.97873 16.936 3.01644 16.8904 3.0166H6.11011C6.06439 3.0166 6.02615 2.97883 6.02612 2.93164V0.226562C6.02612 0.179345 6.06437 0.141602 6.11011 0.141602ZM6.19409 2.84668H16.8064V0.311523H6.19409V2.84668Z" fill="#001B48" stroke="#4A94D0" stroke-width="0.283293"/>
<path d="M6.06494 4.19946H7.78955C7.83529 4.19946 7.87354 4.23721 7.87354 4.28442V6.08813C7.8733 6.13515 7.83514 6.17212 7.78955 6.17212H6.06494C6.01935 6.17212 5.98119 6.13515 5.98096 6.08813V4.28442C5.98096 4.23721 6.01921 4.19946 6.06494 4.19946ZM6.14893 6.00317H7.70557V4.36938H6.14893V6.00317Z" fill="#001B48" stroke="#4A94D0" stroke-width="0.283293"/>
<path d="M9.0835 4.19946H10.8081C10.8538 4.19946 10.8921 4.23721 10.8921 4.28442V6.08813C10.8919 6.13515 10.8537 6.17212 10.8081 6.17212H9.0835C9.0379 6.17212 8.99975 6.13515 8.99951 6.08813V4.28442C8.99951 4.23721 9.03776 4.19946 9.0835 4.19946ZM9.16748 6.00317H10.7241V4.36938H9.16748V6.00317Z" fill="#001B48" stroke="#4A94D0" stroke-width="0.283293"/>
<path d="M12.1018 4.19946H13.8264C13.8722 4.19946 13.9104 4.23721 13.9104 4.28442V6.08813C13.9102 6.13533 13.8723 6.17212 13.8264 6.17212H12.1018C12.0562 6.17212 12.0181 6.13515 12.0178 6.08813V4.28442C12.0178 4.23721 12.0561 4.19946 12.1018 4.19946ZM12.1858 6.00317H13.7434V4.36938H12.1858V6.00317Z" fill="#001B48" stroke="#4A94D0" stroke-width="0.283293"/>
<path d="M15.1206 4.19946H16.8452C16.8909 4.19946 16.9292 4.23721 16.9292 4.28442V6.08813C16.929 6.13515 16.8908 6.17212 16.8452 6.17212H15.1206C15.075 6.17212 15.0369 6.13515 15.0366 6.08813V4.28442C15.0366 4.23721 15.0749 4.19946 15.1206 4.19946ZM15.2046 6.00317H16.7612V4.36938H15.2046V6.00317Z" fill="#001B48" stroke="#4A94D0" stroke-width="0.283293"/>
<path d="M6.06494 7.35556H7.78955C7.83529 7.35556 7.87354 7.3933 7.87354 7.44052V9.24423C7.8733 9.29124 7.83514 9.32822 7.78955 9.32822H6.06494C6.01935 9.32822 5.98119 9.29124 5.98096 9.24423V7.44052C5.98096 7.3933 6.01921 7.35556 6.06494 7.35556ZM6.14893 9.15927H7.70557V7.52548H6.14893V9.15927Z" fill="#001B48" stroke="#4A94D0" stroke-width="0.283293"/>
<path d="M9.0835 7.35556H10.8081C10.8538 7.35556 10.8921 7.3933 10.8921 7.44052V9.24423C10.8919 9.29124 10.8537 9.32822 10.8081 9.32822H9.0835C9.0379 9.32822 8.99975 9.29124 8.99951 9.24423V7.44052C8.99951 7.3933 9.03776 7.35556 9.0835 7.35556ZM9.16748 9.15927H10.7241V7.52548H9.16748V9.15927Z" fill="#001B48" stroke="#4A94D0" stroke-width="0.283293"/>
<path d="M12.1018 7.35556H13.8264C13.8722 7.35556 13.9104 7.3933 13.9104 7.44052V9.24423C13.9102 9.29143 13.8723 9.32822 13.8264 9.32822H12.1018C12.0562 9.32822 12.0181 9.29124 12.0178 9.24423V7.44052C12.0178 7.3933 12.0561 7.35556 12.1018 7.35556ZM12.1858 9.15927H13.7434V7.52548H12.1858V9.15927Z" fill="#001B48" stroke="#4A94D0" stroke-width="0.283293"/>
<path d="M15.1206 7.35556H16.8452C16.8909 7.35556 16.9292 7.3933 16.9292 7.44052V9.24423C16.929 9.29124 16.8908 9.32822 16.8452 9.32822H15.1206C15.075 9.32822 15.0369 9.29124 15.0366 9.24423V7.44052C15.0366 7.3933 15.0749 7.35556 15.1206 7.35556ZM15.2046 9.15927H16.7612V7.52548H15.2046V9.15927Z" fill="#001B48" stroke="#4A94D0" stroke-width="0.283293"/>
<path d="M6.06494 10.5117H7.78955C7.83529 10.5117 7.87354 10.5494 7.87354 10.5966V12.4004C7.8733 12.4474 7.83514 12.4843 7.78955 12.4843H6.06494C6.01935 12.4843 5.98119 12.4474 5.98096 12.4004V10.5966C5.98096 10.5494 6.01921 10.5117 6.06494 10.5117ZM6.14893 12.3154H7.70557V10.6816H6.14893V12.3154Z" fill="#001B48" stroke="#4A94D0" stroke-width="0.283293"/>
<path d="M9.0835 10.5117H10.8081C10.8538 10.5117 10.8921 10.5494 10.8921 10.5966V12.4004C10.8919 12.4474 10.8537 12.4843 10.8081 12.4843H9.0835C9.0379 12.4843 8.99975 12.4474 8.99951 12.4004V10.5966C8.99951 10.5494 9.03776 10.5117 9.0835 10.5117ZM9.16748 12.3154H10.7241V10.6816H9.16748V12.3154Z" fill="#001B48" stroke="#4A94D0" stroke-width="0.283293"/>
<path d="M12.1018 10.5117H13.8264C13.8722 10.5117 13.9104 10.5494 13.9104 10.5966V12.4004C13.9102 12.4476 13.8723 12.4843 13.8264 12.4843H12.1018C12.0562 12.4843 12.0181 12.4474 12.0178 12.4004V10.5966C12.0178 10.5494 12.0561 10.5117 12.1018 10.5117ZM12.1858 12.3154H13.7434V10.6816H12.1858V12.3154Z" fill="#001B48" stroke="#4A94D0" stroke-width="0.283293"/>
<path d="M15.1206 10.5117H16.8452C16.8909 10.5117 16.9292 10.5494 16.9292 10.5966V12.4004C16.929 12.4474 16.8908 12.4843 16.8452 12.4843H15.1206C15.075 12.4843 15.0369 12.4474 15.0366 12.4004V10.5966C15.0366 10.5494 15.0749 10.5117 15.1206 10.5117ZM15.2046 12.3154H16.7612V10.6816H15.2046V12.3154Z" fill="#001B48" stroke="#4A94D0" stroke-width="0.283293"/>
<path d="M11.4553 14.1187C11.501 14.1187 11.5393 14.1565 11.5393 14.2036V22.5445C11.5393 22.5921 11.5015 22.6294 11.4553 22.6294C11.4096 22.6294 11.3713 22.5917 11.3713 22.5445V14.2036C11.3713 14.1564 11.4096 14.1187 11.4553 14.1187Z" fill="#001B48" stroke="#4A94D0" stroke-width="0.283293"/>
<path d="M1.78125 2.39597C1.81542 2.396 1.84545 2.41672 1.8584 2.44675L1.86523 2.47897V2.47995C1.86639 2.53627 1.9492 4.79232 4.52051 7.56198L4.77734 7.83151C4.80191 7.85669 4.80772 7.8937 4.79492 7.92429L4.77637 7.95163C4.75942 7.96788 4.73831 7.97597 4.71777 7.97604C4.70674 7.97604 4.69572 7.97345 4.68555 7.96921L4.6582 7.95065C2.117 5.34688 1.757 3.1689 1.70605 2.61569L1.69727 2.4819V2.48093L1.70312 2.4487C1.71128 2.42819 1.72724 2.4116 1.74707 2.4028L1.7793 2.39597H1.78125Z" fill="#001B48" stroke="#4A94D0" stroke-width="0.283293"/>
<path d="M3.0144 1.03577L3.0896 1.04456V1.04553C3.12297 1.05221 3.14827 1.07837 3.15503 1.11096L3.15601 1.14514C3.14913 1.17965 3.12214 1.2048 3.09058 1.21155H3.05444C3.03137 1.20758 2.76557 1.16301 2.48901 1.3092L2.36987 1.3844C2.11517 1.57487 1.9614 1.89418 1.89038 2.30725L1.86499 2.48987C1.85997 2.53338 1.82276 2.56506 1.78101 2.56506H1.77124C1.7372 2.56116 1.71033 2.53665 1.70093 2.50549L1.698 2.47229V2.47131C1.75505 1.94834 1.91752 1.575 2.16577 1.33655L2.2771 1.24182C2.46665 1.10256 2.66667 1.0524 2.823 1.03772C2.90087 1.03041 2.96713 1.03217 3.0144 1.03577Z" fill="#001B48" stroke="#4A94D0" stroke-width="0.283293"/>
<path d="M0.73999 1.03772C0.8573 1.04877 0.998882 1.08024 1.14233 1.15393L1.28491 1.24182C1.55705 1.44201 1.74661 1.77564 1.83374 2.25647L1.86499 2.47131C1.87011 2.51822 1.83603 2.56009 1.79077 2.56506C1.78679 2.56543 1.78354 2.56505 1.78101 2.56506C1.74992 2.56506 1.72105 2.54764 1.70679 2.52014L1.698 2.48987C1.65026 2.05043 1.52168 1.69988 1.29565 1.47327L1.19312 1.38342C0.955622 1.20563 0.700852 1.1952 0.578857 1.20276L0.506592 1.21057H0.472412C0.440552 1.20341 0.414587 1.17781 0.407959 1.14417C0.401227 1.10921 0.416385 1.07631 0.443115 1.05823L0.472412 1.04553L0.473389 1.04456C0.475205 1.0442 0.502243 1.03924 0.547607 1.03577C0.594919 1.03215 0.661919 1.03039 0.73999 1.03772Z" fill="#001B48" stroke="#4A94D0" stroke-width="0.283293"/>
<path d="M0.797852 2.42776C1.044 2.29858 1.33236 2.276 1.66602 2.37698L1.81152 2.42776C1.85442 2.44497 1.87544 2.4936 1.8584 2.53714C1.84551 2.57 1.81547 2.5899 1.7832 2.59085L1.75098 2.58499H1.75C1.47023 2.47496 1.20605 2.45014 0.974609 2.53421L0.87793 2.5762C0.655173 2.69249 0.513703 2.89683 0.429688 3.05862C0.387027 3.14081 0.356401 3.21599 0.336914 3.27151C0.327131 3.29941 0.320334 3.32325 0.31543 3.33987L0.307617 3.36624L0.306641 3.37015C0.297389 3.40864 0.263111 3.4346 0.225586 3.4346L0.208008 3.43265L0.206055 3.43167L0.175781 3.418C0.158478 3.40516 0.146241 3.38601 0.142578 3.36429L0.143555 3.33011C0.146162 3.31921 0.186566 3.15721 0.289062 2.96487C0.38021 2.79388 0.51581 2.60764 0.710938 2.47855L0.797852 2.42776Z" fill="#001B48" stroke="#4A94D0" stroke-width="0.283293"/>
<path d="M1.75024 2.42783C2.09721 2.2914 2.39748 2.28036 2.65552 2.379L2.76294 2.42783C3.00515 2.55513 3.16852 2.76961 3.27271 2.96494C3.32444 3.06198 3.35997 3.15177 3.38306 3.21786L3.41724 3.33115C3.42531 3.36548 3.41154 3.39957 3.38501 3.41904L3.35474 3.43271C3.34956 3.4339 3.34331 3.43466 3.33618 3.43466C3.30782 3.43466 3.28121 3.42032 3.26587 3.39658L3.25513 3.37021L3.25415 3.36923L3.22388 3.26962C3.20399 3.21311 3.17373 3.13752 3.1311 3.05576C3.05748 2.91466 2.93955 2.74248 2.76294 2.62411L2.68384 2.57626C2.46202 2.46052 2.20473 2.45799 1.92993 2.54306L1.81079 2.58505C1.76842 2.60177 1.71962 2.58119 1.70239 2.5372C1.68535 2.49353 1.70708 2.44388 1.75024 2.42685V2.42783Z" fill="#001B48" stroke="#4A94D0" stroke-width="0.283293"/>
</svg>
