<svg width="25" height="25" viewBox="0 0 25 25" fill="none" xmlns="http://www.w3.org/2000/svg">
<path d="M23.829 4.00389L12.364 1.00703C12.3277 0.997415 12.2894 0.99776 12.2535 1.00747L1.17236 4.00434C1.07162 4.0315 1.00355 4.13999 1.00317 4.23265C0.996036 5.9544 1.00317 -1.91388 1.00317 20.6152C1.00317 20.7225 1.07185 20.8165 1.17071 20.844L12.4437 23.992C12.4818 24.0026 12.521 24.0027 12.5595 23.992L23.8325 20.844C23.9313 20.8165 24 20.7225 24 20.6152C24 20.0955 23.9998 4.20135 24 4.23177C23.9992 4.13294 23.9266 4.02928 23.829 4.00389ZM12.7271 7.56367L23.5492 4.54146V7.20177L12.7271 10.3691V7.56367ZM1.45407 4.54151L12.2761 7.56371V10.3691L1.45407 7.20182V4.54151ZM1.45407 7.6934L12.2761 10.8607V12.9383L1.45407 9.78306V7.6934ZM12.7271 10.8606L23.5491 7.6934V9.78311L12.727 12.9383V10.8606H12.7271ZM12.3105 1.48096L22.8703 4.24118C19.6963 5.12754 15.5178 6.29441 12.5016 7.1367L2.11902 4.23724L12.3105 1.48096ZM1.45407 10.2744L12.2761 13.4296V23.4553L1.45407 20.4331V10.2744ZM19.1832 21.5915V16.1775L21.8383 15.3325V20.8918L19.1832 21.5915ZM22.2893 20.7849V15.0133C22.2893 14.8521 22.1403 14.7411 21.9984 14.7868L18.8924 15.7753C18.7973 15.8056 18.7324 15.8976 18.7324 16.0019V21.7783L12.7271 23.4553V13.4296L23.5492 10.2744V20.4331L22.2893 20.7849Z" fill="#001B48" stroke="#4A94D0" stroke-width="0.5" stroke-miterlimit="10"/>
</svg>
