<svg width="23" height="23" viewBox="0 0 23 23" fill="none" xmlns="http://www.w3.org/2000/svg">
<path d="M11.5975 8.96467L12.0381 8.52411L12.4786 8.96467L12.0381 9.40522L11.5975 8.96467Z" fill="#4A94D0" stroke="#4A94D0" stroke-width="0.0515976"/>
<path d="M14.0656 7.37569L13.625 7.81625L13.1844 7.37569L13.625 6.93514L14.0656 7.37569Z" fill="#4A94D0" stroke="#4A94D0" stroke-width="0.0515976"/>
<path d="M12.392 8.17036L12.8325 7.7298L13.2731 8.17036L12.8325 8.61091L12.392 8.17036Z" fill="#4A94D0" stroke="#4A94D0" stroke-width="0.0515976"/>
<path d="M14.86 6.58144L14.4194 7.022L13.9789 6.58144L14.4194 6.14089L14.86 6.58144Z" fill="#4A94D0" stroke="#4A94D0" stroke-width="0.0515976"/>
<path d="M16.4484 4.99279L16.0078 5.43335L15.5673 4.99279L16.0078 4.55223L16.4484 4.99279Z" fill="#4A94D0" stroke="#4A94D0" stroke-width="0.0515976"/>
<path d="M15.6542 5.78713L15.2136 6.22769L14.7731 5.78713L15.2136 5.34658L15.6542 5.78713Z" fill="#4A94D0" stroke="#4A94D0" stroke-width="0.0515976"/>
<path d="M16.7772 7.7902L17.2178 7.34964L17.6583 7.7902L17.2178 8.23076L16.7772 7.7902Z" fill="#4A94D0" stroke="#4A94D0" stroke-width="0.0515976"/>
<path d="M13.6002 10.9671L14.0408 10.5266L14.4813 10.9671L14.0408 11.4077L13.6002 10.9671Z" fill="#4A94D0" stroke="#4A94D0" stroke-width="0.0515976"/>
<path d="M15.9833 8.58424L16.4238 8.14368L16.8644 8.58424L16.4238 9.02479L15.9833 8.58424Z" fill="#4A94D0" stroke="#4A94D0" stroke-width="0.0515976"/>
<path d="M17.5717 6.99558L18.0122 6.55503L18.4528 6.99558L18.0122 7.43614L17.5717 6.99558Z" fill="#4A94D0" stroke="#4A94D0" stroke-width="0.0515976"/>
<path d="M14.3946 10.1724L14.8352 9.73187L15.2758 10.1724L14.8352 10.613L14.3946 10.1724Z" fill="#4A94D0" stroke="#4A94D0" stroke-width="0.0515976"/>
<path d="M15.1888 9.37852L15.6294 8.93796L16.07 9.37852L15.6294 9.81907L15.1888 9.37852Z" fill="#4A94D0" stroke="#4A94D0" stroke-width="0.0515976"/>
<path d="M19.5576 0.666107C20.4235 0.527785 21.1683 0.695415 21.6758 1.13486L21.7734 1.22665C22.2487 1.70191 22.4551 2.42161 22.3574 3.2706L22.334 3.44247C22.2206 4.15128 21.9107 4.84618 21.4893 5.35458L21.3018 5.56064L15.9307 10.9317L15.9434 10.9493L18.4736 14.7061L17.957 15.0538L15.5 11.4063L15.4824 11.38L15.4609 11.4024L10.4336 16.4278L9.16797 17.1642L9.15332 17.1729L9.15527 17.1905L9.7998 21.8419L8.6748 22.9669L5.20117 19.4942L5.1875 19.4796L5.16992 19.4893L4.44922 19.9083L3.09082 18.5499L3.50977 17.8302L3.52051 17.8126L3.50586 17.7989L0.0361328 14.3282L1.16016 13.2042L5.80762 13.8477L5.8252 13.8507L5.83301 13.8351L6.57227 12.5636L11.5977 7.53915L11.6201 7.51767L11.5938 7.50009L7.94531 5.04208L8.29297 4.52451L12.0508 7.05673L12.0684 7.06845L12.083 7.0538L17.4395 1.69833C17.891 1.24681 18.5536 0.894462 19.2549 0.726654L19.5576 0.666107ZM8.53906 17.5372L6.75977 18.5714L6.73047 18.589L6.75488 18.6124L7.9375 19.795L7.49707 20.2354L6.18848 18.9259L6.1748 18.9122L6.15723 18.922L5.77637 19.1436L5.74805 19.1602L8.65723 22.0694L8.6748 22.088L9.14062 21.6222L9.13867 21.6095L8.57715 17.5558L8.57227 17.5177L8.53906 17.5372ZM7.07227 12.9444H7.07129L7.06836 12.9503L3.87988 18.4317L3.87012 18.4493L3.88379 18.463L4.53711 19.1153L4.55078 19.13L4.56836 19.1202L10.0488 15.9317L10.0498 15.9327L20.8623 5.12021C21.2952 4.6872 21.6098 4.02238 21.7188 3.36826C21.8207 2.75588 21.7432 2.14622 21.4053 1.74423L21.334 1.66611C20.9358 1.26786 20.2852 1.17261 19.6318 1.28134C19.0592 1.37671 18.478 1.62955 18.0518 1.98154L17.8789 2.13779L7.07227 12.9444ZM0.93457 14.3106L0.916992 14.3292L0.93457 14.3477L3.82031 17.2325L3.84375 17.256L3.86035 17.2276L4.08203 16.8468L4.0918 16.8302L4.07812 16.8155L2.76855 15.506L3.20801 15.0655L4.3916 16.2501L4.41602 16.2735L4.43262 16.2442L5.4668 14.4649L5.48633 14.4317L5.44824 14.4268L1.39453 13.8653L1.38184 13.8634L0.93457 14.3106Z" fill="#4A94D0" stroke="#4A94D0" stroke-width="0.0515976"/>
<path d="M17.8621 2.62964C18.5126 1.99773 19.5307 1.9632 20.2214 2.52612L20.3562 2.64819C20.6917 2.9838 20.8766 3.42949 20.8767 3.90405L20.8679 4.08081C20.8288 4.48025 20.6566 4.85031 20.3738 5.14136L19.9333 4.70093C20.1399 4.48514 20.2546 4.20374 20.2546 3.90405C20.2546 3.63431 20.1629 3.37836 19.9939 3.17261L19.9167 3.08765C19.4726 2.64361 18.7541 2.63812 18.3025 3.07007L17.8621 2.62964Z" fill="#4A94D0" stroke="#4A94D0" stroke-width="0.0515976"/>
<path d="M19.1453 9.73447L19.157 9.77646L19.1882 9.74619L19.7048 9.22861L21.5935 11.1173L20.0281 12.6837L20.0164 12.6944L20.0212 12.7091L20.4753 14.253L20.488 14.295L20.5183 14.2638L21.074 13.7071L22.9636 15.5968L21.3474 17.213L21.3523 17.2276L21.9021 19.0958L20.1257 20.8722L14.7507 12.8936L15.2664 12.545L20.2029 19.8722L20.2205 19.8985L21.2009 18.9181L21.197 18.9034L18.3328 9.18076L18.9294 9.00497L19.1453 9.73447ZM20.6882 14.9747L20.6921 14.9893L21.1355 16.4913L21.1472 16.5333L22.0837 15.5968L22.0652 15.5792L21.0925 14.6065L21.075 14.588L20.6882 14.9747ZM19.3572 10.4561L19.3621 10.4708L19.8044 11.9727L19.8162 12.0147L19.8474 11.9845L20.696 11.1358L20.7136 11.1173L19.7048 10.1085L19.3572 10.4561Z" fill="#4A94D0" stroke="#4A94D0" stroke-width="0.0515976"/>
<path d="M7.13635 15.4275L7.5769 14.9869L8.01746 15.4275L7.5769 15.8681L7.13635 15.4275Z" fill="#4A94D0" stroke="#4A94D0" stroke-width="0.0515976"/>
<path d="M4.49108 18.0728L6.78225 15.7816L7.22281 16.2221L4.93164 18.5133L4.49108 18.0728Z" fill="#4A94D0" stroke="#4A94D0" stroke-width="0.0515976"/>
<path d="M7.93054 14.6332L8.37109 14.1926L8.81165 14.6332L8.37109 15.0737L7.93054 14.6332Z" fill="#4A94D0" stroke="#4A94D0" stroke-width="0.0515976"/>
<path d="M17.571 18.2239L18.0116 18.6645L15.7328 20.9432L15.2923 20.5027L17.571 18.2239Z" fill="#4A94D0" stroke="#4A94D0" stroke-width="0.0515976"/>
<path d="M14.4994 21.298L14.9399 20.8574L15.3805 21.298L14.9399 21.7385L14.4994 21.298Z" fill="#4A94D0" stroke="#4A94D0" stroke-width="0.0515976"/>
<path d="M13.7052 22.0919L14.1458 21.6513L14.5863 22.0919L14.1458 22.5325L13.7052 22.0919Z" fill="#4A94D0" stroke="#4A94D0" stroke-width="0.0515976"/>
<path d="M16.441 22.0016L18.5071 19.9356L18.9476 20.3761L16.8816 22.4422L16.441 22.0016Z" fill="#4A94D0" stroke="#4A94D0" stroke-width="0.0515976"/>
<path d="M2.27991 8.09414L1.83936 8.5347L1.3988 8.09414L1.83936 7.65358L2.27991 8.09414Z" fill="#4A94D0" stroke="#4A94D0" stroke-width="0.0515976"/>
<path d="M0.60461 8.8892L1.04517 8.44864L1.48572 8.8892L1.04517 9.32975L0.60461 8.8892Z" fill="#4A94D0" stroke="#4A94D0" stroke-width="0.0515976"/>
<path d="M4.86121 5.51299L2.63357 7.74063L2.19301 7.30008L4.42065 5.07244L4.86121 5.51299Z" fill="#4A94D0" stroke="#4A94D0" stroke-width="0.0515976"/>
<path d="M3.15003 4.57934L0.777377 6.95199L0.336821 6.51143L2.70947 4.13878L3.15003 4.57934Z" fill="#4A94D0" stroke="#4A94D0" stroke-width="0.0515976"/>
<path d="M6.51404 6.60058L4.2429 8.87172L3.80234 8.43117L6.07349 6.16002L6.51404 6.60058Z" fill="#4A94D0" stroke="#4A94D0" stroke-width="0.0515976"/>
<path d="M16.8431 16.93L14.572 19.2012L14.1314 18.7606L16.4026 16.4895L16.8431 16.93Z" fill="#4A94D0" stroke="#4A94D0" stroke-width="0.0515976"/>
<path d="M9.29126 1.9248L8.7356 2.48145L8.70532 2.51172L8.74731 2.52441L10.2903 2.97852L10.3049 2.9834L11.8821 1.40625L13.7708 3.29492L13.2542 3.81152L13.2239 3.84277L13.2649 3.85449L13.9934 4.06934L13.8176 4.66602L4.09692 1.80371L4.08228 1.79883L3.10181 2.7793L3.12817 2.79688L10.4534 7.73145L10.1057 8.24805L2.1272 2.87305L3.90356 1.09668L5.77271 1.64844L5.78735 1.65234L5.7981 1.6416L7.40259 0.0361328L9.29126 1.9248ZM10.9846 3.18359L11.0266 3.19531L12.5286 3.6377L12.5432 3.64258L12.5549 3.63184L12.8733 3.31348L12.8909 3.29492L12.8733 3.27637L11.9006 2.30469L11.8821 2.28613L10.9846 3.18359ZM6.46704 1.85254L6.50806 1.86523L8.01099 2.30762L8.02563 2.31152L8.41138 1.92578L8.3938 1.90723L7.42114 0.93457L7.40259 0.916992L6.46704 1.85254Z" fill="#4A94D0" stroke="#4A94D0" stroke-width="0.0515976"/>
</svg>
