<svg width="23" height="23" viewBox="0 0 23 23" fill="none" xmlns="http://www.w3.org/2000/svg">
<g clip-path="url(#clip0_257_512)">
<path d="M4.96263 8.8668C5.04616 8.78328 5.09371 8.66729 5.09371 8.54867C5.09371 8.43057 5.04616 8.31458 4.96263 8.23123C4.87893 8.14753 4.76311 8.09998 4.64502 8.09998C4.5264 8.09998 4.41041 8.14753 4.32688 8.23123C4.24335 8.31511 4.1958 8.43057 4.1958 8.54867C4.1958 8.66729 4.24335 8.78275 4.32688 8.8668C4.41093 8.95033 4.5264 8.99841 4.64502 8.99841C4.76311 8.99841 4.87858 8.95033 4.96263 8.8668Z" fill="#4A94D0"/>
<path d="M2.417 19.9474L0.131607 22.2328C-0.0438689 22.4081 -0.0438689 22.6925 0.131607 22.868C0.219345 22.9558 0.334281 22.9996 0.449218 22.9996C0.564155 22.9996 0.679091 22.9558 0.766829 22.868L3.05223 20.5826C3.2277 20.4073 3.2277 20.1229 3.05223 19.9474C2.87675 19.7719 2.59248 19.7719 2.417 19.9474Z" fill="#4A94D0"/>
<path d="M0.449218 13.3864C0.56433 13.3864 0.679091 13.3425 0.766829 13.2548L3.27824 10.7435C3.45354 10.5681 3.45354 10.2836 3.27824 10.1081C3.10276 9.93283 2.81832 9.93283 2.64284 10.1081L0.131607 12.6194C-0.0438689 12.7948 -0.0438689 13.0793 0.131607 13.2548C0.219345 13.3425 0.334281 13.3864 0.449218 13.3864Z" fill="#4A94D0"/>
<path d="M11.188 21.134L10.0891 22.2328C9.91365 22.4081 9.91365 22.6926 10.0891 22.868C10.1769 22.9558 10.2918 22.9996 10.4067 22.9996C10.5217 22.9996 10.6366 22.9558 10.7243 22.868L11.8232 21.7694C11.9987 21.5939 11.9987 21.3095 11.8232 21.134C11.6477 20.9585 11.3633 20.9585 11.188 21.134Z" fill="#4A94D0"/>
<path d="M22.7807 12.1993L17.8112 9.24652L21.177 5.88089C22.5958 4.462 23.2457 2.43332 22.9155 0.45413C22.8839 0.264791 22.7356 0.116339 22.5463 0.0849286C20.5671 -0.245492 18.5384 0.40447 17.1193 1.82337L13.9404 5.00246L12.4975 4.86489C12.648 4.389 12.5354 3.84713 12.1588 3.47073C11.6208 2.93273 10.7452 2.93273 10.2072 3.47073L9.13396 4.54394L7.71033 4.40813C7.75595 4.2702 7.77999 4.12438 7.77999 3.97488C7.77999 3.6062 7.63645 3.25964 7.37587 2.99906C7.11511 2.7383 6.76855 2.59476 6.40005 2.59476C6.03137 2.59476 5.68481 2.7383 5.42423 2.99906L4.3368 4.08648L2.49536 3.91083C2.36235 3.89837 2.22987 3.94557 2.13511 4.0405L0.132053 6.04356C0.0309789 6.14463 -0.0160487 6.28782 0.00571036 6.42926C0.0272938 6.57069 0.115032 6.69335 0.241901 6.7595L2.84263 8.11575C2.90896 8.1505 2.97985 8.16682 3.04986 8.16682C3.21183 8.16682 3.36853 8.0789 3.44855 7.92519C3.56331 7.70532 3.47803 7.43403 3.25798 7.31927L1.20017 6.24588L2.62065 4.82541L13.1164 5.8265L8.75599 10.1869L6.45532 8.98682C6.23528 8.87205 5.96399 8.95751 5.84923 9.17738C5.73447 9.39743 5.81975 9.66871 6.0398 9.78348L8.09005 10.8528L7.38447 11.5582C6.68204 12.2608 6.06682 13.0298 5.54425 13.8526L1.63728 13.9245C1.52094 13.9268 1.41004 13.9738 1.32792 14.0561L0.283664 15.1004C0.173816 15.2102 0.128543 15.369 0.163989 15.5205C0.199436 15.6717 0.310512 15.794 0.457736 15.8437L4.06534 17.0601C3.88759 17.6378 3.74826 18.2305 3.64859 18.8356C3.62507 18.9784 3.67193 19.1239 3.77423 19.2262C3.85916 19.3111 3.97374 19.3578 4.09184 19.3578C4.11606 19.3578 4.14045 19.3559 4.16484 19.3518C4.76988 19.2521 5.36263 19.1128 5.9403 18.9351L7.15687 22.5427C7.20636 22.6899 7.32867 22.8011 7.47993 22.8366C7.51397 22.8445 7.54836 22.8484 7.5824 22.8484C7.70015 22.8484 7.81491 22.802 7.90001 22.7167L8.94445 21.6725C9.02674 21.5902 9.07377 21.4791 9.07588 21.3628L9.14396 17.4586C9.84323 17.0148 10.5035 16.5038 11.1175 15.9292C11.5052 19.1725 13.7263 21.9336 16.8879 22.9773C16.9337 22.9924 16.9812 23 17.0288 23C17.0763 23 17.1239 22.9924 17.1695 22.9773C20.6571 21.8259 23.0004 18.5846 23.0004 14.9119V12.5855C23.0004 12.4268 22.9169 12.2801 22.7807 12.1993ZM10.8426 4.10613C11.0303 3.9182 11.3358 3.9182 11.5236 4.10613C11.7068 4.28933 11.7106 4.58465 11.5359 4.77312L10.2939 4.65467L10.8426 4.10613ZM6.05962 3.63445C6.15052 3.54338 6.27142 3.49337 6.40005 3.49337C6.52867 3.49337 6.64957 3.54338 6.74047 3.63445C6.83137 3.72535 6.88155 3.84625 6.88155 3.97488C6.88155 4.1035 6.83154 4.2244 6.74047 4.31547L6.74012 4.31565L5.49687 4.19703L6.05962 3.63445ZM1.43092 15.2236L1.83505 14.8195L5.01695 14.7608C4.76883 15.2301 4.54913 15.714 4.35874 16.211L1.43092 15.2236ZM8.18078 21.1655L7.77666 21.5695L6.78943 18.6417C7.28515 18.4518 7.76806 18.2326 8.23623 17.9852L8.18078 21.1655ZM8.48751 16.809C8.474 16.8162 8.46101 16.8241 8.44838 16.8327C7.28304 17.5392 6.00681 18.0496 4.65705 18.3434C5.16523 16.009 6.31968 13.8938 8.01986 12.1936L17.7547 2.45877C18.8913 1.32221 20.485 0.762441 22.0734 0.927212C22.2381 2.51544 21.6782 4.10912 20.5416 5.24567L16.9181 8.86925C16.8768 8.87978 16.8368 8.89574 16.7993 8.91803L11.2767 12.1993C11.1405 12.2801 11.0568 12.4268 11.0568 12.5855V14.7303L10.8068 14.9805C10.1007 15.6867 9.32277 16.2984 8.48751 16.809ZM22.102 14.9119C22.102 18.1465 20.0694 21.0067 17.0286 22.0761C14.001 21.0113 11.9732 18.171 11.9558 14.9535C11.9582 14.9256 11.9582 14.8974 11.9554 14.8695V12.841L17.0288 9.82664L22.102 12.841V14.9119Z" fill="#4A94D0"/>
<path d="M16.7991 11.0078L13.0734 13.2214C12.9372 13.3023 12.8535 13.449 12.8535 13.6077V14.9116C12.8535 17.5664 14.4214 19.9716 16.8475 21.0391C16.9053 21.0643 16.9668 21.0771 17.0284 21.0771C17.09 21.0771 17.1518 21.0643 17.2094 21.0391C19.6357 19.9716 21.2034 17.5664 21.2034 14.9116V13.6077C21.2034 13.4492 21.1198 13.3023 20.9837 13.2214L17.258 11.0078C17.1165 10.9237 16.9405 10.9237 16.7991 11.0078ZM20.3049 13.8631V14.9116C20.3049 17.1437 19.0255 19.1716 17.0284 20.1334C15.0315 19.1716 13.752 17.1437 13.752 14.9116V13.8631L17.0284 11.9164L20.3049 13.8631Z" fill="#4A94D0"/>
<path d="M16.4743 15.6932C16.2989 15.5179 16.0146 15.5179 15.8391 15.6932C15.6637 15.8686 15.6637 16.1531 15.8391 16.3286L16.5707 17.0601C16.6584 17.1479 16.7734 17.1917 16.8883 17.1917C17.0034 17.1917 17.1183 17.1479 17.2061 17.0601L18.9861 15.2801C19.1616 15.1046 19.1616 14.8202 18.9861 14.6447C18.8106 14.4694 18.5264 14.4694 18.3509 14.6447L16.8883 16.1073L16.4743 15.6932Z" fill="#4A94D0"/>
<path d="M15.5933 7.85574C15.7084 7.85574 15.8233 7.81187 15.911 7.72413L20.01 3.62501C20.1855 3.44954 20.1855 3.16509 20.01 2.98979C19.8345 2.81432 19.5502 2.81432 19.3748 2.98979L15.2756 7.08873C15.1002 7.26421 15.1002 7.54865 15.2756 7.72413C15.3634 7.81187 15.4783 7.85574 15.5933 7.85574Z" fill="#4A94D0"/>
<path d="M14.3223 9.12634C14.4404 9.12634 14.5562 9.07826 14.6402 8.99473C14.7238 8.91086 14.7718 8.79539 14.7718 8.67712C14.7718 8.55868 14.7238 8.44321 14.6402 8.35951C14.5562 8.27563 14.4409 8.22791 14.3223 8.22791C14.204 8.22791 14.0882 8.27563 14.0047 8.35951C13.9211 8.44269 13.873 8.55868 13.873 8.67712C13.873 8.79539 13.921 8.91121 14.0047 8.99473C14.0885 9.07826 14.204 9.12634 14.3223 9.12634Z" fill="#4A94D0"/>
</g>
<rect x="0.0365672" y="0.0365672" width="22.9269" height="22.9269" stroke="#4A94D0" stroke-width="0.0731343"/>
<defs>
<clipPath id="clip0_257_512">
<rect width="23" height="23" fill="white"/>
</clipPath>
</defs>
</svg>
