<svg width="25" height="25" viewBox="0 0 25 25" fill="none" xmlns="http://www.w3.org/2000/svg">
<path d="M23.8187 4.82722L16.3667 2.49858C16.3365 2.48915 16.3049 2.48618 16.2736 2.48984C16.2423 2.4935 16.2121 2.50372 16.1845 2.51992C16.1569 2.53611 16.1326 2.55796 16.1129 2.58422C16.0932 2.61048 16.0785 2.64064 16.0697 2.67297L14.7599 7.5149V5.20678C14.7593 5.02402 14.725 4.84319 14.659 4.67464C14.5931 4.50609 14.4967 4.35312 14.3755 4.22449C14.2543 4.09585 14.1106 3.99409 13.9526 3.92501C13.7946 3.85593 13.6255 3.82089 13.4548 3.8219H12.7795V2.48063C12.78 2.254 12.7318 2.03029 12.6387 1.8268C12.5455 1.62332 12.4098 1.44552 12.2422 1.30718C12.0746 1.16883 11.8795 1.07364 11.6721 1.02897C11.4646 0.984307 11.2503 0.991364 11.0458 1.0496C1.02918 3.8732 1.22554 3.81678 1.16568 3.83986C1.10927 3.86102 1.06229 3.90402 1.03397 3.96039C0.98608 4.05528 1.00284 2.71913 1.00284 23.7435C1.00284 23.8116 1.02807 23.8768 1.07298 23.9249C1.11789 23.973 1.17879 24 1.2423 24H13.4548C13.7986 24 14.1284 23.8539 14.3717 23.5938C14.615 23.3337 14.7521 22.9808 14.7527 22.6126V21.3867L18.9624 22.6972C19.0234 22.7162 19.0889 22.7086 19.1446 22.6759C19.2003 22.6432 19.2416 22.5881 19.2594 22.5228L23.9911 5.14523C23.9998 5.11222 24.0021 5.07769 23.9981 5.04368C23.9941 5.00967 23.9837 4.97687 23.9676 4.94722C23.9515 4.91757 23.9301 4.89168 23.9045 4.87107C23.8789 4.85046 23.8498 4.83555 23.8187 4.82722ZM16.4625 3.07305L16.9174 3.2141C16.7402 3.8655 14.9658 10.4231 14.7623 11.1797V9.3537L16.4625 3.07305ZM11.168 1.54712C11.3015 1.50894 11.4414 1.50419 11.5769 1.53323C11.7124 1.56226 11.8398 1.62431 11.9494 1.71457C12.0589 1.80483 12.1475 1.92088 12.2084 2.05372C12.2693 2.18656 12.3009 2.33264 12.3006 2.48063V3.8219H3.09334L11.168 1.54712ZM1.48176 4.33482H2.34143V23.4871H1.48176V4.33482ZM14.281 22.6126C14.2807 22.7282 14.259 22.8426 14.2173 22.9492C14.1755 23.0558 14.1145 23.1526 14.0377 23.2338C13.9609 23.3151 13.8699 23.3793 13.7699 23.4228C13.6698 23.4662 13.5628 23.4881 13.4548 23.4871H2.82035V4.33482H13.4548C13.672 4.33482 13.8803 4.42723 14.0339 4.59171C14.1875 4.7562 14.2738 4.97929 14.2738 5.21191L14.281 22.6126ZM21.4217 12.7569L21.1008 12.6569C21.0398 12.6378 20.9743 12.6455 20.9186 12.6782C20.8629 12.7109 20.8217 12.766 20.8039 12.8313C20.7951 12.8636 20.7923 12.8975 20.7957 12.9309C20.7991 12.9644 20.8087 12.9969 20.8238 13.0264C20.8389 13.0559 20.8593 13.082 20.8838 13.1031C20.9084 13.1241 20.9365 13.1398 20.9667 13.1493L21.2876 13.2493L18.8762 22.133L14.7599 20.8507V17.3116L15.6435 14.0392C15.6613 13.9739 15.6541 13.9037 15.6236 13.8441C15.593 13.7844 15.5416 13.7402 15.4807 13.7212C15.4197 13.7021 15.3542 13.7098 15.2985 13.7425C15.2428 13.7752 15.2015 13.8303 15.1837 13.8956L14.7599 15.46V13.0134L15.2125 11.3464L15.5333 11.4464C15.5647 11.4631 15.5991 11.4722 15.6342 11.4731C15.6692 11.474 15.704 11.4667 15.7361 11.4516C15.7681 11.4365 15.7968 11.4141 15.8199 11.3859C15.843 11.3577 15.86 11.3244 15.8698 11.2884C15.8796 11.2524 15.8819 11.2145 15.8765 11.1774C15.8712 11.1403 15.8582 11.1049 15.8387 11.0738C15.8192 11.0426 15.7935 11.0164 15.7635 10.9971C15.7335 10.9777 15.6999 10.9656 15.665 10.9617L15.3442 10.8617L17.3772 3.36285L23.4547 5.25294L21.4217 12.7569Z" fill="#001B48" stroke="#001B48" stroke-width="0.26277"/>
<path d="M17.3267 5.27604C17.3531 5.96334 17.4153 6.00181 17.8392 6.82761L16.503 8.46381C16.4552 8.52313 16.4255 8.59667 16.4178 8.67458C16.4101 8.75249 16.4248 8.83106 16.4599 8.89979L16.5413 9.05879C16.5652 9.10527 16.5978 9.14598 16.6371 9.17839C16.6763 9.21081 16.7214 9.23424 16.7694 9.24722C16.8175 9.26021 16.8675 9.26248 16.9164 9.25389C16.9653 9.24529 17.0121 9.22602 17.0537 9.19728L18.5264 8.17145L19.2017 9.46143L18.6797 10.0872C18.6342 10.1442 18.6058 10.2146 18.5982 10.2891C18.5905 10.3636 18.6039 10.4389 18.6366 10.5052L18.6965 10.6206C18.7262 10.6784 18.7699 10.7265 18.823 10.7599C18.8761 10.7933 18.9366 10.8107 18.9982 10.8104C19.1203 10.8104 19.0868 10.8104 20.0614 10.2359C20.1529 10.2478 20.2456 10.2297 20.3273 10.1839C20.409 10.1381 20.4758 10.0668 20.5187 9.97947L21.4167 9.44861C21.4964 9.402 21.5556 9.32341 21.5812 9.23011C21.6068 9.13681 21.5967 9.03644 21.5532 8.95108L21.4934 8.83311C21.4589 8.76133 21.4036 8.7035 21.3358 8.66834C21.268 8.63318 21.1913 8.6226 21.1174 8.6382L20.3487 8.77412L19.6806 7.47644L21.2898 6.70707C21.3346 6.68477 21.3746 6.65288 21.4075 6.61337C21.4403 6.57386 21.4652 6.52757 21.4807 6.47735C21.4962 6.42713 21.5019 6.37404 21.4975 6.32137C21.4931 6.26869 21.4786 6.21755 21.455 6.17107L21.3712 6.01207C21.3361 5.94281 21.2817 5.88689 21.2157 5.852C21.1497 5.8171 21.0752 5.80493 21.0025 5.81716L18.9958 6.15056C18.6007 5.38118 18.5911 5.26065 18.0379 4.86827C17.9685 4.82167 17.8889 4.79554 17.807 4.79253C17.7252 4.78952 17.6441 4.80974 17.5719 4.85114C17.4997 4.89254 17.4389 4.95364 17.3959 5.02826C17.3529 5.10288 17.329 5.18836 17.3267 5.27604ZM18.6653 6.54294C18.6884 6.5879 18.7236 6.6244 18.7663 6.64771C18.809 6.67103 18.8572 6.6801 18.9048 6.67373L20.8444 6.34547L19.2568 7.11484C19.2269 7.12952 19.2001 7.15064 19.1782 7.17689C19.1562 7.20314 19.1396 7.23395 19.1292 7.26739C19.1189 7.30084 19.1151 7.33621 19.1181 7.37129C19.1211 7.40638 19.1308 7.44043 19.1466 7.47132L20.0183 9.16907C20.0414 9.21403 20.0766 9.25053 20.1193 9.27384C20.1619 9.29716 20.2102 9.30622 20.2577 9.29986L20.7798 9.20754C20.1452 9.58196 20.1117 9.57427 20.0734 9.70763C19.9512 9.66916 19.9369 9.70763 19.2999 10.0795L19.6615 9.67942C19.6946 9.63978 19.7154 9.59011 19.7209 9.53727C19.7265 9.48443 19.7166 9.43104 19.6926 9.38449L18.821 7.68674C18.8062 7.6551 18.7855 7.62708 18.7601 7.60442C18.7348 7.58177 18.7053 7.56498 18.6736 7.5551C18.6419 7.54523 18.6086 7.54248 18.5759 7.54704C18.5431 7.5516 18.5116 7.56336 18.4833 7.58159L17.0274 8.60742L18.3133 7.03534C18.3455 6.99564 18.3655 6.9463 18.3707 6.894C18.3758 6.84171 18.3658 6.78898 18.342 6.74298C17.8464 5.77357 17.8296 5.82229 17.8104 5.29142C18.208 5.57609 18.1577 5.55558 18.6653 6.54294Z" fill="#001B48"/>
<path d="M16.1796 11.649C16.3787 11.7309 16.5848 11.7919 16.795 11.8311C16.8585 11.8406 16.9229 11.8227 16.9741 11.7814C17.0253 11.74 17.0591 11.6786 17.068 11.6105C17.0769 11.5425 17.0602 11.4735 17.0215 11.4187C16.9829 11.3639 16.9255 11.3277 16.862 11.3182L16.3137 11.1464C16.2833 11.137 16.2515 11.1341 16.2202 11.1379C16.1888 11.1418 16.1584 11.1522 16.1308 11.1686C16.1032 11.1851 16.0789 11.2072 16.0593 11.2338C16.0398 11.2603 16.0253 11.2907 16.0167 11.3233C16.0068 11.3561 16.0032 11.3908 16.0061 11.4251C16.009 11.4595 16.0183 11.4928 16.0335 11.5232C16.0487 11.5536 16.0695 11.5805 16.0946 11.6021C16.1197 11.6237 16.1486 11.6396 16.1796 11.649Z" fill="#001B48"/>
<path d="M17.9256 12.1927C17.9866 12.2117 18.0521 12.204 18.1078 12.1713C18.1635 12.1386 18.2048 12.0836 18.2226 12.0183C18.2314 11.9859 18.2341 11.9521 18.2307 11.9186C18.2273 11.8851 18.2178 11.8527 18.2026 11.8232C18.1875 11.7936 18.1671 11.7676 18.1426 11.7465C18.1181 11.7254 18.0899 11.7097 18.0597 11.7003L17.509 11.531C17.448 11.512 17.3825 11.5196 17.3268 11.5523C17.2711 11.585 17.2298 11.6401 17.212 11.7054C17.2033 11.7379 17.2006 11.7719 17.2042 11.8055C17.2077 11.8392 17.2175 11.8717 17.2328 11.9012C17.2482 11.9308 17.2689 11.9568 17.2937 11.9778C17.3184 11.9987 17.3469 12.0143 17.3773 12.0234L17.9256 12.1927Z" fill="#001B48"/>
<path d="M19.2567 12.0721L18.7059 11.9029C18.6757 11.8934 18.6441 11.8905 18.6128 11.8941C18.5816 11.8978 18.5513 11.908 18.5237 11.9242C18.468 11.9569 18.4268 12.012 18.409 12.0773C18.3912 12.1426 18.3984 12.2127 18.4289 12.2724C18.4594 12.332 18.5109 12.3762 18.5718 12.3953L19.1226 12.5645C19.1836 12.5836 19.2491 12.5759 19.3048 12.5432C19.3605 12.5105 19.4017 12.4554 19.4195 12.3901C19.4373 12.3248 19.4301 12.2547 19.3996 12.195C19.3691 12.1354 19.3177 12.0912 19.2567 12.0721Z" fill="#001B48"/>
<path d="M20.4541 12.4466L19.9034 12.2747C19.8482 12.2692 19.793 12.2843 19.747 12.3175C19.7011 12.3508 19.6674 12.4 19.6516 12.4569C19.6357 12.5137 19.6388 12.5747 19.6603 12.6294C19.6818 12.6841 19.7203 12.7292 19.7693 12.7569L20.32 12.9287C20.3807 12.9478 20.4459 12.9405 20.5016 12.9083C20.5572 12.8761 20.5987 12.8217 20.617 12.7569C20.6326 12.6926 20.6244 12.6244 20.594 12.5665C20.5636 12.5087 20.5135 12.4657 20.4541 12.4466Z" fill="#001B48"/>
<path d="M16.2446 15.3215C16.1836 15.3024 16.1181 15.3101 16.0624 15.3428C16.0067 15.3755 15.9654 15.4306 15.9477 15.4959L15.2748 17.9809C15.2641 18.02 15.2623 18.0612 15.2694 18.1012C15.2766 18.1412 15.2925 18.1788 15.3159 18.2108C15.3393 18.2429 15.3695 18.2686 15.404 18.2857C15.4385 18.3028 15.4763 18.3108 15.5142 18.3092C15.5677 18.3115 15.6203 18.2945 15.6637 18.2611C15.7071 18.2276 15.7388 18.1796 15.7537 18.1246L16.4266 15.6472C16.4362 15.613 16.4391 15.577 16.435 15.5415C16.431 15.506 16.42 15.4719 16.4029 15.4412C16.3857 15.4105 16.3628 15.3841 16.3355 15.3634C16.3083 15.3428 16.2773 15.3285 16.2446 15.3215Z" fill="#001B48"/>
<path d="M17.686 14.4187C17.625 14.3997 17.5595 14.4074 17.5038 14.4401C17.4481 14.4728 17.4068 14.5278 17.389 14.5931L16.6276 17.4142C16.6169 17.4532 16.615 17.4945 16.6222 17.5344C16.6293 17.5744 16.6453 17.612 16.6687 17.6441C16.6921 17.6761 16.7223 17.7018 16.7568 17.7189C16.7912 17.736 16.829 17.7441 16.867 17.7424C16.9205 17.7447 16.9731 17.7278 17.0165 17.6943C17.0599 17.6608 17.0915 17.6128 17.1065 17.5578L17.868 14.7367C17.8765 14.703 17.8785 14.6678 17.8738 14.6332C17.8692 14.5987 17.858 14.5655 17.841 14.5357C17.8239 14.5059 17.8014 14.4802 17.7748 14.4601C17.7481 14.44 17.7179 14.4259 17.686 14.4187Z" fill="#001B48"/>
<path d="M18.3351 16.4396C18.2741 16.4206 18.2086 16.4283 18.1529 16.461C18.0972 16.4937 18.056 16.5487 18.0382 16.614L17.212 19.6582C17.2014 19.6973 17.1995 19.7385 17.2067 19.7785C17.2138 19.8184 17.2298 19.856 17.2532 19.8881C17.2766 19.9202 17.3067 19.9458 17.3412 19.9629C17.3757 19.98 17.4135 19.9881 17.4515 19.9865C17.5052 19.9886 17.5581 19.9713 17.6015 19.9373C17.645 19.9033 17.6765 19.8547 17.6909 19.7992L18.4979 16.7576C18.5157 16.6924 18.5086 16.6222 18.478 16.5625C18.4475 16.5029 18.3961 16.4587 18.3351 16.4396Z" fill="#001B48"/>
<path d="M19.0724 18.1245C19.0118 18.1063 18.9469 18.1143 18.8917 18.147C18.8366 18.1796 18.7957 18.2342 18.7779 18.2989L18.3157 19.9992C18.3069 20.0316 18.3042 20.0655 18.3076 20.0989C18.311 20.1324 18.3205 20.1648 18.3357 20.1944C18.3508 20.2239 18.3712 20.2499 18.3957 20.271C18.4202 20.2921 18.4484 20.3078 18.4786 20.3173C18.5088 20.3267 18.5404 20.3297 18.5716 20.326C18.6029 20.3223 18.6332 20.3121 18.6608 20.2959C18.6883 20.2797 18.7127 20.2579 18.7323 20.2316C18.752 20.2054 18.7667 20.1752 18.7755 20.1429L19.2377 18.4425C19.2464 18.41 19.2491 18.376 19.2455 18.3424C19.2419 18.3088 19.2322 18.2763 19.2168 18.2467C19.2015 18.2172 19.1808 18.1911 19.156 18.1702C19.1312 18.1492 19.1028 18.1337 19.0724 18.1245Z" fill="#001B48"/>
<path d="M18.4833 15.9011C18.5443 15.9201 18.6098 15.9125 18.6655 15.8798C18.7212 15.8471 18.7625 15.792 18.7803 15.7267L18.9623 15.0779C18.9709 15.0442 18.9733 15.009 18.9692 14.9744C18.9652 14.9397 18.9548 14.9062 18.9387 14.8759C18.9226 14.8455 18.901 14.8188 18.8753 14.7974C18.8495 14.776 18.8201 14.7601 18.7886 14.7509C18.7572 14.7416 18.7244 14.7391 18.692 14.7434C18.6596 14.7477 18.6284 14.7589 18.6 14.7761C18.5717 14.7934 18.5468 14.8165 18.5268 14.844C18.5067 14.8716 18.492 14.9031 18.4833 14.9368L18.3157 15.578C18.3063 15.611 18.3031 15.6457 18.3065 15.68C18.3099 15.7143 18.3197 15.7476 18.3353 15.7777C18.351 15.8079 18.3721 15.8344 18.3976 15.8556C18.423 15.8768 18.4522 15.8923 18.4833 15.9011Z" fill="#001B48"/>
<path d="M16.6229 18.3425C16.5927 18.3331 16.5611 18.3301 16.5298 18.3338C16.4986 18.3375 16.4683 18.3477 16.4407 18.3639C16.4132 18.3801 16.3888 18.4019 16.3691 18.4282C16.3495 18.4544 16.3348 18.4846 16.326 18.5169L16.1105 19.3145C16.0998 19.3536 16.098 19.3948 16.1051 19.4348C16.1123 19.4748 16.1282 19.5123 16.1516 19.5444C16.175 19.5765 16.2052 19.6021 16.2397 19.6192C16.2742 19.6363 16.3119 19.6444 16.3499 19.6428C16.4034 19.6451 16.456 19.6281 16.4994 19.5946C16.5428 19.5612 16.5745 19.5131 16.5894 19.4581L16.8049 18.6605C16.8134 18.6268 16.8154 18.5916 16.8108 18.557C16.8061 18.5225 16.795 18.4893 16.7779 18.4595C16.7609 18.4297 16.7383 18.404 16.7117 18.3839C16.685 18.3638 16.6548 18.3497 16.6229 18.3425Z" fill="#001B48"/>
<path d="M15.3465 18.6349C15.3162 18.6255 15.2844 18.6227 15.253 18.6265C15.2216 18.6303 15.1912 18.6408 15.1636 18.6572C15.136 18.6737 15.1118 18.6958 15.0922 18.7223C15.0726 18.7489 15.0581 18.7793 15.0496 18.8119L15.0065 18.9709C14.9958 19.0099 14.994 19.0512 15.0011 19.0911C15.0083 19.1311 15.0242 19.1687 15.0476 19.2008C15.071 19.2328 15.1012 19.2585 15.1357 19.2756C15.1702 19.2927 15.2079 19.3008 15.2459 19.2991C15.2994 19.3014 15.352 19.2845 15.3954 19.251C15.4388 19.2175 15.4705 19.1695 15.4854 19.1145L15.5285 18.9529C15.537 18.9192 15.539 18.884 15.5344 18.8494C15.5297 18.8149 15.5185 18.7817 15.5015 18.7519C15.4845 18.7221 15.4619 18.6964 15.4353 18.6763C15.4086 18.6562 15.3784 18.6421 15.3465 18.6349Z" fill="#001B48"/>
<path d="M16.5843 14.0751C16.5234 14.0561 16.4578 14.0637 16.4021 14.0964C16.3465 14.1291 16.3052 14.1842 16.2874 14.2495L16.1844 14.6239C16.1738 14.663 16.1719 14.7042 16.1791 14.7442C16.1862 14.7842 16.2022 14.8218 16.2256 14.8538C16.249 14.8859 16.2792 14.9116 16.3136 14.9287C16.3481 14.9458 16.3859 14.9538 16.4239 14.9522C16.4773 14.9545 16.5299 14.9375 16.5733 14.9041C16.6167 14.8706 16.6484 14.8225 16.6634 14.7675L16.7663 14.3931C16.7749 14.3594 16.7769 14.3242 16.7722 14.2896C16.7676 14.2551 16.7564 14.2219 16.7394 14.1921C16.7223 14.1623 16.6998 14.1366 16.6731 14.1165C16.6465 14.0964 16.6163 14.0823 16.5843 14.0751Z" fill="#001B48"/>
<path d="M12.1113 18.0912C12.061 18.0912 12.5495 18.0912 4.80296 18.0912C4.59421 18.0919 4.39419 18.181 4.24658 18.3391C4.09897 18.4972 4.01577 18.7114 4.01514 18.935V20.6686C4.01577 20.8922 4.09897 21.1064 4.24658 21.2645C4.39419 21.4226 4.59421 21.5117 4.80296 21.5124H12.0179C12.2267 21.5117 12.4267 21.4226 12.5743 21.2645C12.7219 21.1064 12.8051 20.8922 12.8058 20.6686V18.9299C12.8059 18.7233 12.7353 18.5238 12.6074 18.3692C12.4794 18.2146 12.3029 18.1157 12.1113 18.0912ZM12.334 20.6558C12.3353 20.7007 12.3281 20.7453 12.3127 20.787C12.2973 20.8288 12.274 20.8666 12.2444 20.8984C12.2148 20.9301 12.1794 20.955 12.1404 20.9715C12.1015 20.988 12.0598 20.9958 12.0179 20.9943H4.80296C4.7624 20.9943 4.72223 20.9858 4.68475 20.9692C4.64727 20.9525 4.61322 20.9282 4.58454 20.8974C4.55585 20.8667 4.5331 20.8303 4.51757 20.7901C4.50205 20.75 4.49406 20.707 4.49406 20.6635V18.9299C4.49406 18.8864 4.50205 18.8434 4.51757 18.8033C4.5331 18.7631 4.55585 18.7267 4.58454 18.6959C4.61322 18.6652 4.64727 18.6408 4.68475 18.6242C4.72223 18.6076 4.7624 18.599 4.80296 18.599H12.0179C12.0816 18.599 12.1438 18.6202 12.1957 18.6597C12.2476 18.6993 12.2868 18.7551 12.3077 18.8196C12.3412 18.8965 12.334 18.776 12.334 20.6635V20.6558Z" fill="#001B48"/>
<path d="M12.3673 9.42293C12.0048 8.63175 11.4424 7.96528 10.744 7.49917C10.0456 7.03306 9.23915 6.78598 8.41623 6.78598C7.59332 6.78598 6.78689 7.03306 6.08849 7.49917C5.39008 7.96528 4.82768 8.63175 4.46513 9.42293C4.13692 10.1412 3.98481 10.9371 4.02313 11.7357C4.06146 12.5343 4.28895 13.3093 4.68419 13.9877C5.07943 14.6661 5.6294 15.2256 6.28231 15.6135C6.93522 16.0014 7.66959 16.205 8.41623 16.205C9.16288 16.205 9.89725 16.0014 10.5502 15.6135C11.2031 15.2256 11.753 14.6661 12.1483 13.9877C12.5435 13.3093 12.771 12.5343 12.8093 11.7357C12.8477 10.9371 12.6956 10.1412 12.3673 9.42293ZM4.8339 13.18C4.60844 12.6457 4.49183 12.0661 4.49183 11.4797C4.49183 10.8934 4.60844 10.3137 4.8339 9.77941H6.48139C6.30061 10.9047 6.30061 12.0548 6.48139 13.18H4.8339ZM6.96989 9.77941H9.86258C10.0529 10.9038 10.0529 12.0557 9.86258 13.18H6.96989C6.77952 12.0557 6.77952 10.9038 6.96989 9.77941ZM8.40666 7.28407C9.0963 7.28407 9.56804 8.54071 9.74764 9.26649H7.08004C7.38416 8.04832 7.91097 7.29433 8.40666 7.28407ZM11.9986 9.77941C12.3745 10.7052 12.3003 11.2181 12.3003 12.0183C12.2523 12.419 12.1507 12.8103 11.9986 13.18H10.3415C10.5223 12.0548 10.5223 10.9047 10.3415 9.77941H11.9986ZM9.75003 13.693C9.44592 14.9214 8.90474 15.6805 8.42581 15.6805C7.94689 15.6805 7.39613 14.9111 7.09202 13.693H9.75003ZM10.2457 13.693H11.7447C11.2347 14.585 10.4291 15.238 9.48902 15.5215C9.85733 14.975 10.1151 14.3522 10.2457 13.693ZM11.7423 9.26649H10.2457C10.1141 8.60913 9.85642 7.98821 9.48902 7.44308C10.4276 7.72561 11.2322 8.37671 11.7423 9.26649ZM7.34105 7.44308C6.97274 7.98764 6.71497 8.60878 6.58436 9.26649H5.08773C5.59787 8.37671 6.40249 7.72561 7.34105 7.44308ZM5.07336 13.693H6.57478C6.70496 14.3524 6.96274 14.9753 7.33148 15.5215C6.39068 15.2382 5.58429 14.5852 5.07336 13.693Z" fill="#001B48"/>
</svg>
