<svg width="23" height="23" viewBox="0 0 23 23" fill="none" xmlns="http://www.w3.org/2000/svg">
<path d="M11.5616 8.96461L12.0381 9.44113L12.5146 8.96461L12.0381 8.4881L11.5616 8.96461Z" fill="#001B48"/>
<path d="M14.1015 7.37575L13.625 6.89923L13.1485 7.37575L13.625 7.85227L14.1015 7.37575Z" fill="#001B48"/>
<path d="M12.356 8.1703L12.8325 8.64682L13.309 8.1703L12.8325 7.69378L12.356 8.1703Z" fill="#001B48"/>
<path d="M14.896 6.5815L14.4194 6.10498L13.9429 6.5815L14.4194 7.05802L14.896 6.5815Z" fill="#001B48"/>
<path d="M16.4843 4.99285L16.0078 4.51633L15.5313 4.99284L16.0078 5.46936L16.4843 4.99285Z" fill="#001B48"/>
<path d="M15.6901 5.78719L15.2136 5.31067L14.7371 5.78719L15.2136 6.2637L15.6901 5.78719Z" fill="#001B48"/>
<path d="M16.7413 7.79014L17.2178 8.26666L17.6943 7.79014L17.2178 7.31363L16.7413 7.79014Z" fill="#001B48"/>
<path d="M13.5643 10.9671L14.0408 11.4436L14.5173 10.9671L14.0408 10.4905L13.5643 10.9671Z" fill="#001B48"/>
<path d="M15.9473 8.58418L16.4238 9.0607L16.9003 8.58418L16.4238 8.10766L15.9473 8.58418Z" fill="#001B48"/>
<path d="M17.5357 6.99553L18.0122 7.47205L18.4887 6.99553L18.0122 6.51901L17.5357 6.99553Z" fill="#001B48"/>
<path d="M14.3587 10.1724L14.8352 10.6489L15.3117 10.1724L14.8352 9.69586L14.3587 10.1724Z" fill="#001B48"/>
<path d="M15.1529 9.37846L15.6294 9.85498L16.1059 9.37846L15.6294 8.90194L15.1529 9.37846Z" fill="#001B48"/>
<path d="M15.4789 11.4203L17.9513 15.0902L18.5101 14.7137L15.9644 10.9348L21.3204 5.5789C21.8408 5.05847 22.2292 4.26142 22.3596 3.44666C22.5082 2.51755 22.3066 1.72251 21.7921 1.20798C21.2775 0.693394 20.4824 0.492018 19.5534 0.640466C18.7386 0.770763 17.9415 1.15927 17.4211 1.67965L12.0652 7.03557L8.28634 4.48984L7.90978 5.04877L11.5797 7.52108L6.552 12.5487L5.81115 13.8225L1.15191 13.1773L0 14.3292L3.48787 17.817L3.05901 18.5543L4.44559 19.9409L5.18294 19.5121L8.67503 23.0042L9.8269 21.8523L9.18081 17.1868L10.4513 16.4479L15.4789 11.4203ZM0.953099 14.3292L1.39148 13.8908L5.44497 14.4522L4.41019 16.2314L3.20881 15.03L2.73228 15.5065L4.05969 16.8339L3.83837 17.2145L0.953099 14.3292ZM8.67503 22.0511L5.78976 19.1658L6.17027 18.9445L7.49768 20.2719L7.97421 19.7954L6.77283 18.5941L8.55206 17.5592L9.11341 21.6128L8.67503 22.0511ZM4.55531 19.0975L3.90248 18.4447L7.09048 12.9633L17.8976 2.15618C18.7547 1.29896 20.5359 0.904879 21.3154 1.68446C22.095 2.46395 21.701 4.24511 20.8437 5.10232L10.0367 15.9095L4.55531 19.0975Z" fill="#001B48"/>
<path d="M20.3747 2.62949C19.6717 1.92656 18.5279 1.92656 17.825 2.62949L18.3015 3.10602C18.7417 2.6658 19.4579 2.66589 19.8982 3.10602C20.1114 3.31926 20.2288 3.60276 20.2288 3.90433C20.2288 4.2059 20.1114 4.48941 19.8982 4.70261L20.3746 5.17918C20.7152 4.83861 20.9028 4.38589 20.9028 3.90433C20.9027 3.42278 20.7152 2.97002 20.3747 2.62949Z" fill="#001B48"/>
<path d="M22.9999 15.5971L21.0745 13.6717L20.5005 14.2457L20.0458 12.7022L21.6303 11.1177L19.7049 9.19235L19.1697 9.72751L18.9477 8.97372L18.3012 9.16414L21.1719 18.9104L20.2244 19.8578L15.2744 12.5102L14.7156 12.8867L20.1226 20.9128L21.9315 19.1039L21.3767 17.2204L22.9999 15.5971ZM19.3866 10.4637L19.705 10.1454L20.6773 11.1177L19.8291 11.9659L19.3866 10.4637ZM21.1598 16.4841L20.7174 14.9818L21.0745 14.6247L22.0468 15.597L21.1598 16.4841Z" fill="#001B48"/>
<path d="M7.10039 15.4274L7.5769 15.904L8.05342 15.4274L7.5769 14.9509L7.10039 15.4274Z" fill="#001B48"/>
<path d="M4.45512 18.0727L4.93164 18.5492L7.25901 16.2219L6.78249 15.7453L4.45512 18.0727Z" fill="#001B48"/>
<path d="M7.89458 14.6331L8.37109 15.1096L8.84761 14.6331L8.37109 14.1566L7.89458 14.6331Z" fill="#001B48"/>
<path d="M17.5714 18.1876L15.2563 20.5027L15.7329 20.9792L18.0479 18.6642L17.5714 18.1876Z" fill="#001B48"/>
<path d="M14.4634 21.2979L14.9399 21.7744L15.4165 21.2979L14.9399 20.8214L14.4634 21.2979Z" fill="#001B48"/>
<path d="M13.6692 22.0918L14.1458 22.5684L14.6223 22.0918L14.1458 21.6153L13.6692 22.0918Z" fill="#001B48"/>
<path d="M16.4051 22.0016L16.8816 22.4781L18.9837 20.376L18.5072 19.8994L16.4051 22.0016Z" fill="#001B48"/>
<path d="M2.31587 8.09419L1.83936 7.61768L1.36284 8.09419L1.83936 8.57071L2.31587 8.09419Z" fill="#001B48"/>
<path d="M0.568648 8.88914L1.04517 9.36566L1.52168 8.88914L1.04517 8.41263L0.568648 8.88914Z" fill="#001B48"/>
<path d="M4.89717 5.51305L4.42065 5.03653L2.15682 7.30036L2.63334 7.77688L4.89717 5.51305Z" fill="#001B48"/>
<path d="M3.18599 4.57939L2.70947 4.10287L0.300515 6.51183L0.777033 6.98835L3.18599 4.57939Z" fill="#001B48"/>
<path d="M6.55 6.60063L6.07349 6.12411L3.76645 8.43116L4.24296 8.90767L6.55 6.60063Z" fill="#001B48"/>
<path d="M16.8791 16.9301L16.4026 16.4536L14.0955 18.7606L14.5721 19.2371L16.8791 16.9301Z" fill="#001B48"/>
<path d="M10.4898 7.72548L3.14211 2.77546L4.0896 1.82802L13.8358 4.69868L14.0262 4.05223L13.2724 3.83019L13.8076 3.29498L11.8822 1.3696L10.2978 2.95405L8.75427 2.49936L9.32825 1.92538L7.40282 0L5.77959 1.62323L3.89604 1.06843L2.08716 2.87736L10.1132 8.28441L10.4898 7.72548ZM11.8822 2.32261L12.8546 3.29494L12.5362 3.61327L11.034 3.1708L11.8822 2.32261ZM7.40282 0.953054L8.37515 1.92538L8.018 2.28253L6.51577 1.84006L7.40282 0.953054Z" fill="#001B48"/>
</svg>
