<svg width="23" height="23" viewBox="0 0 23 23" fill="none" xmlns="http://www.w3.org/2000/svg">
<path d="M9.84394 23H0.2373C0.164242 23 0.0956938 22.9642 0.0533022 22.9045C0.0109107 22.8447 0.000538234 22.7678 0.0248908 22.6985C0.514198 21.3061 1.17623 20.1449 1.93928 19.3405C2.74832 18.4876 3.67192 18.0368 4.60994 18.0368H5.47085C6.34574 18.0368 7.17959 18.4107 7.94985 19.1486C8.04005 19.235 8.04321 19.3781 7.95707 19.4686C7.87093 19.5592 7.72843 19.5623 7.63823 19.4763C6.95501 18.8217 6.22578 18.4895 5.47085 18.4895H4.60994C3.02612 18.4895 1.52618 19.9996 0.559746 22.5473H7.75368C7.76676 22.5451 7.78029 22.5437 7.79427 22.5437H9.84259C9.93775 22.5437 10.0221 22.6035 10.0546 22.6926C10.0559 22.6967 10.0577 22.7008 10.0586 22.7044C10.0807 22.7732 10.069 22.8488 10.0261 22.9072C9.98375 22.9656 9.9161 23 9.84394 23Z" fill="#001B48"/>
<path d="M18.2377 22.9964H9.84282C9.74721 22.9964 9.66198 22.9357 9.63041 22.8456C9.12216 21.4007 8.43352 20.2359 7.63936 19.4763C7.54916 19.3903 7.54556 19.2468 7.63169 19.1563C7.71738 19.0657 7.86034 19.0621 7.95053 19.1486C8.7677 19.9299 9.47482 21.1015 10.0016 22.5437H18.0122V3.15795H4.98808V18.2631C4.98808 18.3881 4.88707 18.4895 4.7626 18.4895C4.63813 18.4895 4.53711 18.3881 4.53711 18.2631V2.9316C4.53711 2.80666 4.63813 2.70526 4.7626 2.70526H18.2377C18.3622 2.70526 18.4632 2.80666 18.4632 2.9316V22.7705C18.4632 22.8954 18.3622 22.9964 18.2377 22.9964Z" fill="#001B48"/>
<path d="M15.2057 22.9964H9.8427C9.74709 22.9964 9.66185 22.9357 9.63029 22.8456C9.12204 21.4007 8.4334 20.2359 7.63924 19.4763C7.59459 19.4337 7.56934 19.3744 7.56934 19.3124V14.2034C7.56934 14.0785 7.67035 13.9771 7.79482 13.9771H15.2061C15.3306 13.9771 15.4316 14.0785 15.4316 14.2034V22.77C15.4312 22.8954 15.3301 22.9964 15.2057 22.9964ZM10.001 22.5437H14.9802V14.4298H8.01986V19.2165C8.80726 19.9973 9.48958 21.1431 10.001 22.5437Z" fill="#001B48"/>
<path d="M22.7745 22.9964H18.2377C18.1132 22.9964 18.0122 22.8949 18.0122 22.77V7.66573C18.0122 7.54079 18.1132 7.43939 18.2377 7.43939H22.7745C22.899 7.43939 23 7.54079 23 7.66573V22.77C23 22.8954 22.899 22.9964 22.7745 22.9964ZM18.4632 22.5437H22.549V7.89208H18.4632V22.5437Z" fill="#001B48"/>
<path d="M21.3371 11.0029H19.5404C19.416 11.0029 19.3149 10.9015 19.3149 10.7766V8.97311C19.3149 8.84817 19.416 8.74677 19.5404 8.74677H21.3371C21.4616 8.74677 21.5626 8.84817 21.5626 8.97311V10.7766C21.5626 10.902 21.4616 11.0029 21.3371 11.0029ZM19.7659 10.5503H21.1116V9.19945H19.7659V10.5503Z" fill="#001B48"/>
<path d="M21.3371 14.385H19.5404C19.416 14.385 19.3149 14.2836 19.3149 14.1586V12.3551C19.3149 12.2302 19.416 12.1288 19.5404 12.1288H21.3371C21.4616 12.1288 21.5626 12.2302 21.5626 12.3551V14.1586C21.5626 14.2836 21.4616 14.385 21.3371 14.385ZM19.7659 13.9323H21.1116V12.5815H19.7659V13.9323Z" fill="#001B48"/>
<path d="M21.3371 17.7665H19.5404C19.416 17.7665 19.3149 17.6651 19.3149 17.5402V15.7367C19.3149 15.6117 19.416 15.5103 19.5404 15.5103H21.3371C21.4616 15.5103 21.5626 15.6117 21.5626 15.7367V17.5402C21.5626 17.6651 21.4616 17.7665 21.3371 17.7665ZM19.7659 17.3138H21.1116V15.963H19.7659V17.3138Z" fill="#001B48"/>
<path d="M21.3371 21.1481H19.5404C19.416 21.1481 19.3149 21.0467 19.3149 20.9217V19.1182C19.3149 18.9933 19.416 18.8919 19.5404 18.8919H21.3371C21.4616 18.8919 21.5626 18.9933 21.5626 19.1182V20.9217C21.5626 21.0467 21.4616 21.1481 21.3371 21.1481ZM19.7659 20.6954H21.1116V19.3446H19.7659V20.6954Z" fill="#001B48"/>
<path d="M4.76497 22.9964H0.228173C0.103704 22.9964 0.00268555 22.895 0.00268555 22.7701V7.66578C0.00268555 7.54084 0.103704 7.43944 0.228173 7.43944H4.53723L4.53948 3.56265C4.53948 3.43771 4.6405 3.3363 4.76497 3.3363C4.88944 3.3363 4.99046 3.43771 4.99046 3.56265V18.1943C4.99046 18.3193 4.88944 18.4207 4.76497 18.4207C4.6405 18.4207 4.53948 18.3193 4.53948 18.1943V7.89212H0.45366V22.5442H4.76497C4.88944 22.5442 4.99046 22.6456 4.99046 22.7705C4.99046 22.8954 4.88944 22.9964 4.76497 22.9964Z" fill="#001B48"/>
<path d="M3.32734 11.0029H1.53066C1.40619 11.0029 1.30518 10.9015 1.30518 10.7766V8.97311C1.30518 8.84817 1.40619 8.74677 1.53066 8.74677H3.32734C3.45181 8.74677 3.55283 8.84817 3.55283 8.97311V10.7766C3.55283 10.902 3.45181 11.0029 3.32734 11.0029ZM1.75615 10.5503H3.10186V9.19945H1.75615V10.5503Z" fill="#001B48"/>
<path d="M3.32734 14.385H1.53066C1.40619 14.385 1.30518 14.2836 1.30518 14.1586V12.3551C1.30518 12.2302 1.40619 12.1288 1.53066 12.1288H3.32734C3.45181 12.1288 3.55283 12.2302 3.55283 12.3551V14.1586C3.55283 14.2836 3.45181 14.385 3.32734 14.385ZM1.75615 13.9323H3.10186V12.5815H1.75615V13.9323Z" fill="#001B48"/>
<path d="M3.32734 17.7665H1.53066C1.40619 17.7665 1.30518 17.6651 1.30518 17.5402V15.7367C1.30518 15.6117 1.40619 15.5103 1.53066 15.5103H3.32734C3.45181 15.5103 3.55283 15.6117 3.55283 15.7367V17.5402C3.55283 17.6651 3.45181 17.7665 3.32734 17.7665ZM1.75615 17.3138H3.10186V15.963H1.75615V17.3138Z" fill="#001B48"/>
<path d="M16.8901 3.15793H6.11001C5.98554 3.15793 5.88452 3.05653 5.88452 2.93159V0.226342C5.88452 0.101401 5.98554 0 6.11001 0H16.8901C17.0146 0 17.1156 0.101401 17.1156 0.226342V2.93159C17.1156 3.05653 17.0146 3.15793 16.8901 3.15793ZM6.3355 2.70524H16.6646V0.452685H6.3355V2.70524Z" fill="#001B48"/>
<path d="M7.78982 6.31404H6.06484C5.94037 6.31404 5.83936 6.21264 5.83936 6.0877V4.2842C5.83936 4.15926 5.94037 4.05786 6.06484 4.05786H7.78982C7.91429 4.05786 8.0153 4.15926 8.0153 4.2842V6.0877C8.0153 6.21264 7.91429 6.31404 7.78982 6.31404ZM6.29033 5.86136H7.56433V4.51055H6.29033V5.86136Z" fill="#001B48"/>
<path d="M10.8084 6.31404H9.0834C8.95893 6.31404 8.85791 6.21264 8.85791 6.0877V4.2842C8.85791 4.15926 8.95893 4.05786 9.0834 4.05786H10.8084C10.9328 4.05786 11.0339 4.15926 11.0339 4.2842V6.0877C11.0339 6.21264 10.9328 6.31404 10.8084 6.31404ZM9.30888 5.86136H10.5829V4.51055H9.30888V5.86136Z" fill="#001B48"/>
<path d="M13.8267 6.31404H12.1017C11.9772 6.31404 11.8762 6.21264 11.8762 6.0877V4.2842C11.8762 4.15926 11.9772 4.05786 12.1017 4.05786H13.8267C13.9512 4.05786 14.0522 4.15926 14.0522 4.2842V6.0877C14.0522 6.21264 13.9516 6.31404 13.8267 6.31404ZM12.3276 5.86136H13.6016V4.51055H12.3276V5.86136Z" fill="#001B48"/>
<path d="M16.8455 6.31404H15.1205C14.996 6.31404 14.895 6.21264 14.895 6.0877V4.2842C14.895 4.15926 14.996 4.05786 15.1205 4.05786H16.8455C16.97 4.05786 17.071 4.15926 17.071 4.2842V6.0877C17.071 6.21264 16.97 6.31404 16.8455 6.31404ZM15.346 5.86136H16.62V4.51055H15.346V5.86136Z" fill="#001B48"/>
<path d="M7.78982 9.47014H6.06484C5.94037 9.47014 5.83936 9.36874 5.83936 9.2438V7.4403C5.83936 7.31536 5.94037 7.21396 6.06484 7.21396H7.78982C7.91429 7.21396 8.0153 7.31536 8.0153 7.4403V9.2438C8.0153 9.36874 7.91429 9.47014 7.78982 9.47014ZM6.29033 9.01745H7.56433V7.66664H6.29033V9.01745Z" fill="#001B48"/>
<path d="M10.8084 9.47014H9.0834C8.95893 9.47014 8.85791 9.36874 8.85791 9.2438V7.4403C8.85791 7.31536 8.95893 7.21396 9.0834 7.21396H10.8084C10.9328 7.21396 11.0339 7.31536 11.0339 7.4403V9.2438C11.0339 9.36874 10.9328 9.47014 10.8084 9.47014ZM9.30888 9.01745H10.5829V7.66664H9.30888V9.01745Z" fill="#001B48"/>
<path d="M13.8267 9.47014H12.1017C11.9772 9.47014 11.8762 9.36874 11.8762 9.2438V7.4403C11.8762 7.31536 11.9772 7.21396 12.1017 7.21396H13.8267C13.9512 7.21396 14.0522 7.31536 14.0522 7.4403V9.2438C14.0522 9.36874 13.9516 9.47014 13.8267 9.47014ZM12.3276 9.01745H13.6016V7.66664H12.3276V9.01745Z" fill="#001B48"/>
<path d="M16.8455 9.47014H15.1205C14.996 9.47014 14.895 9.36874 14.895 9.2438V7.4403C14.895 7.31536 14.996 7.21396 15.1205 7.21396H16.8455C16.97 7.21396 17.071 7.31536 17.071 7.4403V9.2438C17.071 9.36874 16.97 9.47014 16.8455 9.47014ZM15.346 9.01745H16.62V7.66664H15.346V9.01745Z" fill="#001B48"/>
<path d="M7.78982 12.6263H6.06484C5.94037 12.6263 5.83936 12.5249 5.83936 12.3999V10.5964C5.83936 10.4715 5.94037 10.3701 6.06484 10.3701H7.78982C7.91429 10.3701 8.0153 10.4715 8.0153 10.5964V12.3999C8.0153 12.5249 7.91429 12.6263 7.78982 12.6263ZM6.29033 12.1736H7.56433V10.8228H6.29033V12.1736Z" fill="#001B48"/>
<path d="M10.8084 12.6263H9.0834C8.95893 12.6263 8.85791 12.5249 8.85791 12.3999V10.5964C8.85791 10.4715 8.95893 10.3701 9.0834 10.3701H10.8084C10.9328 10.3701 11.0339 10.4715 11.0339 10.5964V12.3999C11.0339 12.5249 10.9328 12.6263 10.8084 12.6263ZM9.30888 12.1736H10.5829V10.8228H9.30888V12.1736Z" fill="#001B48"/>
<path d="M13.8267 12.6263H12.1017C11.9772 12.6263 11.8762 12.5249 11.8762 12.3999V10.5964C11.8762 10.4715 11.9772 10.3701 12.1017 10.3701H13.8267C13.9512 10.3701 14.0522 10.4715 14.0522 10.5964V12.3999C14.0522 12.5249 13.9516 12.6263 13.8267 12.6263ZM12.3276 12.1736H13.6016V10.8228H12.3276V12.1736Z" fill="#001B48"/>
<path d="M16.8455 12.6263H15.1205C14.996 12.6263 14.895 12.5249 14.895 12.3999V10.5964C14.895 10.4715 14.996 10.3701 15.1205 10.3701H16.8455C16.97 10.3701 17.071 10.4715 17.071 10.5964V12.3999C17.071 12.5249 16.97 12.6263 16.8455 12.6263ZM15.346 12.1736H16.62V10.8228H15.346V12.1736Z" fill="#001B48"/>
<path d="M11.4552 22.7709C11.3308 22.7709 11.2297 22.6695 11.2297 22.5446V14.2034C11.2297 14.0785 11.3308 13.9771 11.4552 13.9771C11.5797 13.9771 11.6807 14.0785 11.6807 14.2034V22.5446C11.6807 22.67 11.5801 22.7709 11.4552 22.7709Z" fill="#001B48"/>
<path d="M4.71747 8.11753C4.65884 8.11753 4.60066 8.0949 4.55647 8.04963C1.62243 5.04335 1.55704 2.58663 1.55569 2.48342C1.55388 2.35848 1.65355 2.25572 1.77802 2.25436H1.78118C1.90429 2.25436 2.00486 2.3535 2.00666 2.47708C2.00711 2.50062 2.08243 4.86816 4.87891 7.73275C4.96595 7.82193 4.9646 7.96543 4.87576 8.0528C4.83156 8.09581 4.77429 8.11753 4.71747 8.11753Z" fill="#001B48"/>
<path d="M1.78099 2.70706C1.77287 2.70706 1.7643 2.7066 1.75619 2.7057C1.63262 2.69212 1.54288 2.5803 1.55686 2.45627C1.6245 1.83564 1.83871 1.38884 2.19363 1.12809C2.62431 0.811665 3.09783 0.902202 3.11768 0.906276C3.23989 0.930721 3.31881 1.05023 3.29446 1.17291C3.27011 1.29513 3.15195 1.37435 3.03064 1.35081C3.01485 1.3481 2.72082 1.2983 2.45474 1.49748C2.20941 1.68082 2.05834 2.01988 2.00557 2.50561C1.9925 2.62105 1.89463 2.70706 1.78099 2.70706Z" fill="#001B48"/>
<path d="M1.78068 2.70706C1.66703 2.70706 1.56962 2.62105 1.557 2.50516C1.50423 2.01943 1.3527 1.68037 1.10783 1.49703C0.839947 1.29649 0.544108 1.3481 0.531481 1.35036C0.409718 1.37254 0.292013 1.29242 0.268563 1.17064C0.245112 1.04887 0.323131 0.930721 0.444894 0.906276C0.464736 0.902202 0.938259 0.811665 1.36894 1.12809C1.7234 1.38884 1.93762 1.83564 2.00571 2.45627C2.01924 2.5803 1.92995 2.69212 1.80638 2.7057C1.79736 2.7066 1.7888 2.70706 1.78068 2.70706Z" fill="#001B48"/>
<path d="M0.22567 3.57621C0.208082 3.57621 0.190494 3.5744 0.172906 3.56987C0.0520451 3.5409 -0.0223657 3.41958 0.00604568 3.29781C0.0128103 3.26929 0.177867 2.59298 0.732114 2.3019C1.05817 2.13079 1.43879 2.12852 1.86316 2.29557C1.97906 2.34129 2.03633 2.47257 1.99078 2.58891C1.94523 2.70525 1.81445 2.76274 1.69855 2.71702C1.40181 2.60022 1.14791 2.59524 0.943169 2.70208C0.572018 2.89583 0.445745 3.39831 0.444392 3.40328C0.419589 3.5065 0.32759 3.57621 0.22567 3.57621Z" fill="#001B48"/>
<path d="M3.33615 3.57667C3.23423 3.57667 3.14178 3.50696 3.11697 3.40329C3.11427 3.39243 2.98754 2.89493 2.6182 2.70208C2.41345 2.59525 2.15955 2.60068 1.86281 2.71702C1.74691 2.76274 1.61613 2.70525 1.57058 2.58891C1.52503 2.47257 1.58231 2.34129 1.69821 2.29557C2.12303 2.12853 2.5032 2.13079 2.82925 2.30236C3.38305 2.59344 3.54855 3.26975 3.55532 3.29827C3.58418 3.42004 3.50887 3.54181 3.38801 3.57078C3.37087 3.57486 3.35328 3.57667 3.33615 3.57667Z" fill="#001B48"/>
</svg>
