<svg width="23" height="23" viewBox="0 0 23 23" fill="none" xmlns="http://www.w3.org/2000/svg">
<g clip-path="url(#clip0_196_113)">
<path d="M2.04472 6.1178C2.23518 6.44281 2.5072 6.71247 2.83386 6.90009C3.16053 7.0877 3.53052 7.18677 3.90722 7.1875H5.60127L4.41785 8.37092C4.36759 8.42118 4.33336 8.48521 4.31949 8.55492C4.30562 8.62463 4.31274 8.69688 4.33994 8.76255C4.36714 8.82821 4.4132 8.88434 4.4723 8.92382C4.53139 8.96331 4.60087 8.98438 4.67195 8.98438H6.8282C6.87539 8.98438 6.92212 8.97508 6.96572 8.95702C7.00932 8.93895 7.04892 8.91246 7.08228 8.87908L8.77388 7.1875H11.5001C11.6906 7.18728 11.8733 7.11149 12.0081 6.97674C12.1428 6.842 12.2186 6.65931 12.2188 6.46875V5.79352C12.2188 5.21012 11.987 4.65062 11.5745 4.2381C11.162 3.82557 10.6025 3.5938 10.0191 3.59375H8.77388L7.08228 1.90217C7.04892 1.86879 7.00932 1.8423 6.96572 1.82424C6.92212 1.80617 6.87539 1.79687 6.8282 1.79688H4.67195C4.60088 1.79687 4.5314 1.81795 4.4723 1.85744C4.41321 1.89692 4.36715 1.95305 4.33995 2.01871C4.31276 2.08438 4.30564 2.15663 4.31951 2.22634C4.33338 2.29605 4.36761 2.36007 4.41787 2.41033L5.60127 3.59375H3.73491L2.80734 2.30558C2.77404 2.25937 2.73023 2.22172 2.67952 2.19576C2.62881 2.1698 2.57267 2.15626 2.5157 2.15625H0.35945C0.29623 2.15626 0.234132 2.17294 0.179417 2.20461C0.124702 2.23628 0.0793056 2.28182 0.047806 2.33664C0.0163063 2.39145 -0.000182859 2.4536 1.52962e-06 2.51682C0.000185918 2.58004 0.0170373 2.64209 0.0488562 2.69672L2.04472 6.1178ZM6.6794 8.26563H5.5395L6.61763 7.1875H7.75752L6.6794 8.26563ZM5.5395 2.51563H6.6794L7.75752 3.59375H6.61763L5.5395 2.51563ZM2.33145 2.875L3.25902 4.16317C3.29232 4.20939 3.33613 4.24703 3.38684 4.27299C3.43754 4.29895 3.49369 4.31249 3.55066 4.3125H10.019C10.3708 4.31357 10.7103 4.44113 10.9758 4.67188H9.34382V5.39063H11.4364C11.4763 5.52129 11.4977 5.6569 11.5001 5.79352V6.46875H3.90722C3.65608 6.46828 3.40942 6.40223 3.19164 6.27716C2.97386 6.15208 2.79252 5.9723 2.66556 5.75562L0.985197 2.875H2.33145Z" fill="#001B48"/>
<path d="M3.59424 4.67188H4.31299V5.39062H3.59424V4.67188Z" fill="#001B48"/>
<path d="M4.67236 4.67188H5.39111V5.39062H4.67236V4.67188Z" fill="#001B48"/>
<path d="M5.75049 4.67188H6.46924V5.39062H5.75049V4.67188Z" fill="#001B48"/>
<path d="M6.82861 4.67188H7.54736V5.39062H6.82861V4.67188Z" fill="#001B48"/>
<path d="M7.90674 4.67188H8.62549V5.39062H7.90674V4.67188Z" fill="#001B48"/>
<path d="M15.9779 19.7023C15.3893 20.0235 14.7673 20.2793 14.123 20.4652C13.8064 20.2435 13.0031 19.6002 13.0243 18.7903C13.0278 18.6554 13.0338 18.5208 13.0398 18.388C13.0865 17.3371 13.1447 16.0289 11.5654 15.7393C10.9871 15.6332 10.5017 14.4849 10.6544 13.5836C10.7474 13.0354 11.1004 12.4202 12.2505 12.599C13.5683 12.8029 14.5233 12.0656 15.2897 11.4728C16.1457 10.8104 16.5833 10.5121 17.1835 10.9817C17.2585 11.0404 17.3539 11.0669 17.4485 11.0553C17.5431 11.0438 17.6292 10.9951 17.688 10.9201C17.7467 10.845 17.7732 10.7497 17.7616 10.6551C17.7501 10.5605 17.7014 10.4743 17.6264 10.4156C16.5609 9.58118 15.6512 10.2838 14.85 10.9043C14.1242 11.4654 13.377 12.0471 12.3607 11.8887C11.0513 11.6844 10.1476 12.273 9.94578 13.4634C9.74398 14.6537 10.3638 16.2496 11.4356 16.4462C12.3579 16.6153 12.3737 17.1856 12.3217 18.356C12.3154 18.4933 12.3094 18.6321 12.3056 18.7714C12.3192 19.1379 12.4102 19.4975 12.5726 19.8263C12.735 20.1552 12.9651 20.446 13.2479 20.6797C11.6432 20.9846 9.9866 20.8632 8.44352 20.3276C8.85561 19.6469 8.988 18.833 8.81292 18.0569C8.71961 17.738 8.55432 17.4448 8.32979 17.1999C8.10526 16.9549 7.82749 16.7649 7.5179 16.6443C7.31301 16.5723 7.13361 16.442 7.00174 16.2695C6.86988 16.0969 6.79129 15.8896 6.77563 15.673C6.73667 15.3309 6.59397 15.0089 6.36667 14.7503C6.13938 14.4917 5.83839 14.3088 5.50413 14.2262C5.03584 14.0786 4.53709 14.0561 4.0574 14.1609C3.57772 14.2657 3.13382 14.4942 2.76979 14.8237C2.36402 13.7626 2.15624 12.6361 2.15674 11.5C2.15674 11.3371 2.1708 11.1765 2.17905 11.0149C3.11852 11.4172 4.17194 11.4657 5.1444 11.1513C5.80313 10.9332 6.40782 11.1582 6.99321 11.3758C7.36208 11.5376 7.75641 11.6336 8.15837 11.6595C8.4118 11.6577 8.66018 11.5885 8.8781 11.4591C9.09603 11.3298 9.27566 11.1448 9.39864 10.9232C9.9377 10.115 10.8109 10.0178 11.7356 9.91493C12.8706 9.78859 14.1568 9.6454 14.6703 8.04085C14.9258 7.17677 14.9692 6.26384 14.797 5.3794C14.6568 4.35473 14.5878 3.82137 15.9068 3.26474C16.6654 3.67206 17.3643 4.1817 17.984 4.77936C17.5835 5.09594 17.0337 5.64244 17.0704 6.23958C17.0958 6.45384 17.1819 6.65638 17.3185 6.82338C17.4551 6.99038 17.6365 7.11488 17.8415 7.18222C18.1528 7.32822 18.2047 7.54879 18.2763 7.95836C18.4167 8.76169 18.6775 9.4292 20.2957 9.4292C20.3943 9.4292 20.4986 9.42641 20.6075 9.42134C20.72 9.91353 20.7922 10.414 20.8235 10.9179C20.8291 11.0092 20.8692 11.095 20.9358 11.1577C21.0024 11.2205 21.0904 11.2555 21.1819 11.2556C21.1892 11.2556 21.1966 11.2554 21.204 11.2548C21.2511 11.252 21.2972 11.2399 21.3396 11.2192C21.382 11.1985 21.4199 11.1697 21.4512 11.1344C21.4825 11.0991 21.5065 11.0579 21.5219 11.0133C21.5373 10.9687 21.5437 10.9215 21.5409 10.8744C21.4328 9.13364 20.8738 7.45093 19.9189 5.99144C18.964 4.53195 17.646 3.34586 16.0943 2.54962C16.083 2.54335 16.0715 2.5377 16.0596 2.53271C13.8059 1.38528 11.2027 1.12865 8.76833 1.81391C8.67673 1.83999 8.59922 1.90136 8.55283 1.98454C8.50644 2.06771 8.49495 2.1659 8.52089 2.25754C8.54684 2.34918 8.60809 2.42678 8.6912 2.4733C8.77431 2.51981 8.87248 2.53145 8.96416 2.50564C10.9878 1.9361 13.1444 2.06575 15.0852 2.87361C13.8328 3.61063 13.954 4.52065 14.0849 5.4768C14.2411 6.25506 14.2072 7.05953 13.9859 7.82186C13.6143 8.98264 12.7502 9.0788 11.6563 9.20058C10.6575 9.31165 9.52533 9.43764 8.80061 10.5245C8.41211 11.1071 8.06432 11.0069 7.24344 10.702C6.60787 10.4661 5.81787 10.172 4.91908 10.4687C4.03484 10.7451 3.07799 10.6689 2.2486 10.2562C2.34335 9.51796 2.52722 8.79396 2.79618 8.09999C2.81899 8.05669 2.83274 8.00919 2.8366 7.9604C2.84045 7.91161 2.83433 7.86254 2.81861 7.81619C2.80289 7.76984 2.77789 7.72718 2.74514 7.69081C2.71239 7.65443 2.67258 7.62511 2.62812 7.60463C2.58367 7.58414 2.53552 7.57293 2.48659 7.57166C2.43766 7.57039 2.38899 7.57911 2.34354 7.59727C2.29809 7.61542 2.25681 7.64265 2.22222 7.67728C2.18764 7.71191 2.16046 7.75322 2.14236 7.7987C1.81393 8.62709 1.59848 9.49591 1.50179 10.3818C1.50098 10.3859 1.50102 10.3898 1.50035 10.3939C1.45951 10.7612 1.43869 11.1305 1.43799 11.5C1.43722 12.9127 1.73574 14.3095 2.3139 15.5984C2.31842 15.61 2.32357 15.6214 2.32932 15.6324C3.40473 18.0051 5.35388 19.8715 7.77092 20.843C7.78414 20.8492 7.79772 20.8545 7.81159 20.8591C9.82745 21.6574 12.0479 21.7798 14.1394 21.2081C14.1533 21.205 14.167 21.201 14.1805 21.1962C14.9262 20.9927 15.6456 20.7028 16.324 20.3323C16.4071 20.2862 16.4686 20.209 16.495 20.1177C16.5214 20.0263 16.5105 19.9282 16.4647 19.8449C16.4189 19.7616 16.342 19.6998 16.2508 19.6731C16.1596 19.6463 16.0614 19.6568 15.9779 19.7023ZM18.9842 7.83467C18.9733 7.56259 18.8899 7.29837 18.7427 7.06929C18.5955 6.84021 18.3898 6.65458 18.1468 6.53158C17.9879 6.45719 17.7969 6.33838 17.7878 6.19554C17.7723 5.94681 18.1391 5.56922 18.4873 5.30118C19.3653 6.28748 20.0234 7.44919 20.4182 8.70924C19.1474 8.74451 19.0753 8.35564 18.9842 7.83467ZM3.06772 15.5213C3.34462 15.2264 3.69723 15.0133 4.08705 14.9052C4.47687 14.7971 4.88889 14.7982 5.27811 14.9085C5.49459 14.9537 5.69008 15.0691 5.83426 15.2368C5.97844 15.4045 6.06323 15.615 6.07547 15.8359C6.11554 16.163 6.24461 16.4729 6.44863 16.7318C6.65266 16.9907 6.92381 17.1886 7.23255 17.3041C7.44399 17.3824 7.63432 17.5088 7.78853 17.6733C7.94275 17.8378 8.05662 18.0359 8.12117 18.252C8.18478 18.5623 8.1864 18.8822 8.12592 19.1931C8.06544 19.5041 7.94407 19.8 7.76877 20.0639C5.70876 19.1609 4.04081 17.5492 3.06772 15.5213Z" fill="#001B48"/>
<path d="M19.0474 11.5C17.9993 11.5012 16.9945 11.9181 16.2534 12.6592C15.5123 13.4002 15.0954 14.4051 15.0942 15.4531C15.0942 17.5578 18.6367 21.2933 18.7873 21.4512C18.8209 21.4864 18.8612 21.5144 18.9059 21.5335C18.9506 21.5526 18.9987 21.5625 19.0474 21.5625C19.096 21.5625 19.1441 21.5526 19.1888 21.5335C19.2335 21.5144 19.2738 21.4864 19.3074 21.4512C19.458 21.2933 23.0005 17.5578 23.0005 15.4531C22.9993 14.4051 22.5824 13.4002 21.8413 12.6592C21.1002 11.9181 20.0954 11.5012 19.0474 11.5ZM19.0474 20.6758C17.9492 19.4719 15.813 16.8429 15.813 15.4531C15.813 14.5953 16.1538 13.7726 16.7603 13.1661C17.3669 12.5595 18.1896 12.2188 19.0474 12.2188C19.9052 12.2188 20.7278 12.5595 21.3344 13.1661C21.941 13.7726 22.2817 14.5953 22.2817 15.4531C22.2817 16.8418 20.1455 19.4714 19.0474 20.6758Z" fill="#001B48"/>
<path d="M19.0474 13.2969C18.6209 13.2969 18.204 13.4233 17.8494 13.6603C17.4948 13.8972 17.2185 14.234 17.0552 14.628C16.892 15.022 16.8493 15.4555 16.9325 15.8738C17.0157 16.2921 17.2211 16.6763 17.5227 16.9778C17.8242 17.2794 18.2084 17.4847 18.6267 17.5679C19.045 17.6511 19.4785 17.6084 19.8725 17.4452C20.2665 17.282 20.6033 17.0057 20.8402 16.6511C21.0772 16.2965 21.2036 15.8796 21.2036 15.4531C21.203 14.8814 20.9756 14.3334 20.5714 13.9291C20.1671 13.5249 19.619 13.2975 19.0474 13.2969ZM19.0474 16.8906C18.7631 16.8906 18.4851 16.8063 18.2487 16.6484C18.0123 16.4904 17.8281 16.2659 17.7193 16.0032C17.6105 15.7406 17.582 15.4515 17.6375 15.1727C17.693 14.8938 17.8299 14.6377 18.0309 14.4367C18.2319 14.2356 18.4881 14.0987 18.7669 14.0432C19.0458 13.9878 19.3348 14.0162 19.5975 14.125C19.8601 14.2338 20.0846 14.4181 20.2426 14.6545C20.4006 14.8909 20.4849 15.1688 20.4849 15.4531C20.4845 15.8342 20.3329 16.1996 20.0634 16.4691C19.7939 16.7386 19.4285 16.8902 19.0474 16.8906Z" fill="#001B48"/>
<path d="M11.2451 0.71875C11.4436 0.71875 11.6045 0.557852 11.6045 0.359375C11.6045 0.160898 11.4436 0 11.2451 0C11.0466 0 10.8857 0.160898 10.8857 0.359375C10.8857 0.557852 11.0466 0.71875 11.2451 0.71875Z" fill="#001B48"/>
<path d="M9.45901 0.902744C9.53009 0.902746 9.59958 0.881668 9.65869 0.842177C9.71779 0.802686 9.76386 0.746555 9.79106 0.680882C9.81827 0.615209 9.82539 0.542944 9.81152 0.473226C9.79765 0.403507 9.76342 0.339466 9.71316 0.289201C9.6629 0.238937 9.59886 0.204705 9.52914 0.190836C9.45942 0.176968 9.38716 0.184084 9.32148 0.211286C9.25581 0.238488 9.19968 0.284554 9.16018 0.343658C9.12069 0.402761 9.09961 0.472249 9.09961 0.543333C9.09961 0.590531 9.1089 0.637267 9.12697 0.680873C9.14503 0.724478 9.1715 0.764099 9.20487 0.797474C9.23825 0.830848 9.27787 0.857322 9.32147 0.875385C9.36508 0.893447 9.41181 0.902744 9.45901 0.902744Z" fill="#001B48"/>
<path d="M7.72707 1.37271C7.79816 1.37272 7.86764 1.35164 7.92675 1.31215C7.98586 1.27266 8.03192 1.21653 8.05913 1.15086C8.08633 1.08518 8.09345 1.01292 8.07959 0.943201C8.06572 0.873483 8.03149 0.809441 7.98123 0.759176C7.93097 0.70891 7.86693 0.674678 7.79721 0.660808C7.72749 0.646938 7.65523 0.654054 7.58955 0.681254C7.52388 0.708455 7.46775 0.75452 7.42825 0.813623C7.38876 0.872726 7.36768 0.942213 7.36768 1.0133C7.36767 1.0605 7.37697 1.10723 7.39503 1.15084C7.41309 1.19444 7.43956 1.23407 7.47293 1.26744C7.50631 1.30082 7.54593 1.32729 7.58953 1.34535C7.63314 1.36342 7.67987 1.37271 7.72707 1.37271Z" fill="#001B48"/>
<path d="M13.0347 0.81941C13.1058 0.819405 13.1753 0.798324 13.2344 0.75883C13.2935 0.719337 13.3395 0.663205 13.3667 0.597533C13.3939 0.531862 13.401 0.4596 13.3872 0.389885C13.3733 0.32017 13.3391 0.256134 13.2888 0.205874C13.2386 0.155613 13.1745 0.121386 13.1048 0.107521C13.0351 0.0936551 12.9628 0.100774 12.8971 0.127976C12.8315 0.155179 12.7753 0.201243 12.7359 0.260345C12.6964 0.319447 12.6753 0.388932 12.6753 0.460013C12.6753 0.507212 12.6846 0.553948 12.7027 0.597553C12.7207 0.641158 12.7472 0.680778 12.7806 0.714152C12.8139 0.747525 12.8536 0.773997 12.8972 0.792058C12.9408 0.810118 12.9875 0.819412 13.0347 0.81941Z" fill="#001B48"/>
<path d="M14.7886 1.207C14.8597 1.20701 14.9292 1.18593 14.9883 1.14644C15.0474 1.10695 15.0934 1.05082 15.1207 0.985146C15.1479 0.919474 15.155 0.847209 15.1411 0.777491C15.1272 0.707772 15.093 0.643731 15.0428 0.593465C14.9925 0.5432 14.9285 0.508968 14.8587 0.495098C14.789 0.481228 14.7168 0.488343 14.6511 0.515544C14.5854 0.542745 14.5293 0.588809 14.4898 0.647912C14.4503 0.707015 14.4292 0.776502 14.4292 0.847586C14.4292 0.894784 14.4385 0.941521 14.4566 0.985126C14.4746 1.02873 14.5011 1.06835 14.5345 1.10173C14.5678 1.1351 14.6075 1.16158 14.6511 1.17964C14.6947 1.19771 14.7414 1.207 14.7886 1.207Z" fill="#001B48"/>
<path d="M16.4561 1.87282C16.5272 1.87281 16.5967 1.85173 16.6558 1.81224C16.7149 1.77274 16.7609 1.71661 16.7881 1.65094C16.8153 1.58527 16.8224 1.51301 16.8086 1.44329C16.7947 1.37358 16.7605 1.30954 16.7102 1.25928C16.6599 1.20902 16.5959 1.17479 16.5262 1.16093C16.4565 1.14706 16.3842 1.15418 16.3185 1.18138C16.2529 1.20858 16.1967 1.25465 16.1572 1.31375C16.1178 1.37285 16.0967 1.44234 16.0967 1.51342C16.0967 1.56062 16.106 1.60735 16.124 1.65096C16.1421 1.69456 16.1686 1.73418 16.202 1.76756C16.2353 1.80093 16.275 1.8274 16.3186 1.84546C16.3622 1.86352 16.4089 1.87282 16.4561 1.87282Z" fill="#001B48"/>
<path d="M17.9937 2.80008C18.0648 2.80008 18.1343 2.779 18.1934 2.73951C18.2525 2.70002 18.2985 2.64389 18.3257 2.57822C18.3529 2.51255 18.3601 2.44028 18.3462 2.37056C18.3323 2.30084 18.2981 2.2368 18.2478 2.18654C18.1976 2.13628 18.1335 2.10204 18.0638 2.08818C17.9941 2.07431 17.9218 2.08142 17.8562 2.10862C17.7905 2.13582 17.7343 2.18189 17.6949 2.24099C17.6554 2.30009 17.6343 2.36958 17.6343 2.44066C17.6343 2.48786 17.6436 2.5346 17.6616 2.57821C17.6797 2.62181 17.7062 2.66144 17.7395 2.69481C17.7729 2.72819 17.8125 2.75466 17.8561 2.77272C17.8997 2.79079 17.9465 2.80008 17.9937 2.80008Z" fill="#001B48"/>
<path d="M19.3633 3.95993C19.4344 3.95994 19.5039 3.93886 19.563 3.89937C19.6221 3.85988 19.6682 3.80375 19.6954 3.73808C19.7226 3.6724 19.7297 3.60014 19.7158 3.53042C19.702 3.4607 19.6677 3.39666 19.6175 3.3464C19.5672 3.29613 19.5032 3.2619 19.4334 3.24803C19.3637 3.23416 19.2915 3.24127 19.2258 3.26847C19.1601 3.29567 19.104 3.34174 19.0645 3.40084C19.025 3.45994 19.0039 3.52943 19.0039 3.60052C19.0039 3.64771 19.0132 3.69445 19.0313 3.73806C19.0493 3.78166 19.0758 3.82128 19.1092 3.85466C19.1425 3.88803 19.1822 3.91451 19.2258 3.93257C19.2694 3.95064 19.3161 3.95993 19.3633 3.95993Z" fill="#001B48"/>
<path d="M20.5274 5.32715C20.5984 5.32715 20.6679 5.30608 20.727 5.26659C20.7861 5.2271 20.8322 5.17097 20.8594 5.10529C20.8866 5.03962 20.8937 4.96736 20.8799 4.89764C20.866 4.82792 20.8318 4.76388 20.7815 4.71361C20.7313 4.66335 20.6672 4.62912 20.5975 4.61525C20.5278 4.60138 20.4555 4.60849 20.3898 4.63569C20.3242 4.66289 20.268 4.70896 20.2285 4.76806C20.1891 4.82716 20.168 4.89665 20.168 4.96773C20.168 5.06305 20.2058 5.15447 20.2732 5.22188C20.3406 5.28928 20.432 5.32715 20.5274 5.32715Z" fill="#001B48"/>
<path d="M21.4619 6.85563C21.533 6.85564 21.6025 6.83456 21.6616 6.79507C21.7207 6.75558 21.7668 6.69945 21.794 6.63377C21.8212 6.5681 21.8283 6.49584 21.8145 6.42612C21.8006 6.3564 21.7664 6.29235 21.7161 6.24209C21.6658 6.19182 21.6018 6.15759 21.5321 6.14372C21.4624 6.12985 21.3901 6.13696 21.3244 6.16417C21.2587 6.19137 21.2026 6.23743 21.1631 6.29654C21.1236 6.35564 21.1025 6.42513 21.1025 6.49621C21.1025 6.59153 21.1404 6.68295 21.2078 6.75036C21.2752 6.81776 21.3666 6.85563 21.4619 6.85563Z" fill="#001B48"/>
<path d="M22.1343 8.51758C22.2054 8.51758 22.2749 8.4965 22.334 8.45701C22.3931 8.41752 22.4392 8.36138 22.4664 8.29571C22.4936 8.23003 22.5007 8.15777 22.4868 8.08805C22.4729 8.01833 22.4387 7.95429 22.3884 7.90403C22.3382 7.85377 22.2741 7.81954 22.2044 7.80567C22.1347 7.79181 22.0624 7.79892 21.9968 7.82613C21.9311 7.85333 21.875 7.8994 21.8355 7.95851C21.796 8.01762 21.7749 8.0871 21.7749 8.15819C21.7749 8.25351 21.8128 8.34492 21.8802 8.41232C21.9476 8.47972 22.039 8.51758 22.1343 8.51758Z" fill="#001B48"/>
<path d="M22.5327 10.2673C22.7312 10.2673 22.8921 10.1064 22.8921 9.90796C22.8921 9.70948 22.7312 9.54858 22.5327 9.54858C22.3342 9.54858 22.1733 9.70948 22.1733 9.90796C22.1733 10.1064 22.3342 10.2673 22.5327 10.2673Z" fill="#001B48"/>
<path d="M22.6411 12.0588C22.8396 12.0588 23.0005 11.8979 23.0005 11.6995C23.0005 11.501 22.8396 11.3401 22.6411 11.3401C22.4426 11.3401 22.2817 11.501 22.2817 11.6995C22.2817 11.8979 22.4426 12.0588 22.6411 12.0588Z" fill="#001B48"/>
<path d="M16.1148 21.2892C16.0437 21.2892 15.9742 21.3103 15.9151 21.3498C15.856 21.3893 15.8099 21.4454 15.7827 21.5111C15.7555 21.5768 15.7484 21.649 15.7623 21.7187C15.7761 21.7885 15.8104 21.8525 15.8606 21.9028C15.9109 21.953 15.9749 21.9873 16.0447 22.0011C16.1144 22.015 16.1867 22.0079 16.2523 21.9807C16.318 21.9535 16.3741 21.9074 16.4136 21.8483C16.4531 21.7892 16.4742 21.7197 16.4742 21.6486C16.4742 21.5533 16.4363 21.4619 16.3689 21.3945C16.3015 21.3271 16.2101 21.2892 16.1148 21.2892Z" fill="#001B48"/>
<path d="M14.4258 21.9044C14.3547 21.9044 14.2853 21.9254 14.2261 21.9649C14.167 22.0044 14.121 22.0605 14.0938 22.1262C14.0666 22.1919 14.0594 22.2642 14.0733 22.3339C14.0872 22.4036 14.1214 22.4676 14.1717 22.5179C14.2219 22.5682 14.286 22.6024 14.3557 22.6163C14.4254 22.6301 14.4977 22.623 14.5634 22.5958C14.629 22.5686 14.6852 22.5225 14.7247 22.4634C14.7642 22.4043 14.7852 22.3348 14.7852 22.2638C14.7852 22.1684 14.7474 22.077 14.68 22.0096C14.6126 21.9422 14.5211 21.9044 14.4258 21.9044Z" fill="#001B48"/>
<path d="M12.6646 22.237C12.5935 22.237 12.524 22.2581 12.4649 22.2975C12.4058 22.337 12.3597 22.3932 12.3325 22.4588C12.3053 22.5245 12.2982 22.5968 12.3121 22.6665C12.3259 22.7362 12.3602 22.8002 12.4104 22.8505C12.4607 22.9008 12.5247 22.935 12.5945 22.9489C12.6642 22.9627 12.7364 22.9556 12.8021 22.9284C12.8678 22.9012 12.9239 22.8552 12.9634 22.7961C13.0029 22.737 13.024 22.6675 13.024 22.5964C13.024 22.5492 13.0147 22.5025 12.9966 22.4589C12.9786 22.4152 12.9521 22.3756 12.9187 22.3422C12.8854 22.3089 12.8457 22.2824 12.8021 22.2643C12.7585 22.2463 12.7118 22.237 12.6646 22.237Z" fill="#001B48"/>
<path d="M10.8677 23.0014C11.0662 23.0014 11.2271 22.8405 11.2271 22.6421C11.2271 22.4436 11.0662 22.2827 10.8677 22.2827C10.6692 22.2827 10.5083 22.4436 10.5083 22.6421C10.5083 22.8405 10.6692 23.0014 10.8677 23.0014Z" fill="#001B48"/>
<path d="M9.08887 22.7625C9.28734 22.7625 9.44824 22.6016 9.44824 22.4031C9.44824 22.2046 9.28734 22.0437 9.08887 22.0437C8.89039 22.0437 8.72949 22.2046 8.72949 22.4031C8.72949 22.6016 8.89039 22.7625 9.08887 22.7625Z" fill="#001B48"/>
<path d="M7.37456 21.5195C7.30348 21.5195 7.23399 21.5406 7.17488 21.5801C7.11577 21.6196 7.0697 21.6757 7.0425 21.7414C7.01529 21.8071 7.00817 21.8793 7.02204 21.9491C7.03591 22.0188 7.07014 22.0828 7.12041 22.1331C7.17067 22.1834 7.23471 22.2176 7.30443 22.2314C7.37415 22.2453 7.44642 22.2382 7.51209 22.211C7.57777 22.1838 7.6339 22.1377 7.67339 22.0786C7.71288 22.0195 7.73396 21.95 7.73396 21.8789C7.73396 21.7836 7.69609 21.6922 7.62869 21.6248C7.56129 21.5574 7.46988 21.5195 7.37456 21.5195Z" fill="#001B48"/>
<path d="M5.76465 21.4468C5.96313 21.4468 6.12402 21.2859 6.12402 21.0874C6.12402 20.8889 5.96313 20.728 5.76465 20.728C5.56617 20.728 5.40527 20.8889 5.40527 21.0874C5.40527 21.2859 5.56617 21.4468 5.76465 21.4468Z" fill="#001B48"/>
<path d="M4.30568 19.6862C4.2346 19.6862 4.16511 19.7073 4.10601 19.7468C4.04691 19.7863 4.00085 19.8424 3.97364 19.9081C3.94644 19.9737 3.93933 20.046 3.9532 20.1157C3.96706 20.1854 4.00129 20.2495 4.05156 20.2997C4.10182 20.35 4.16586 20.3842 4.23558 20.3981C4.3053 20.412 4.37756 20.4048 4.44323 20.3776C4.5089 20.3504 4.56504 20.3044 4.60453 20.2453C4.64402 20.1862 4.6651 20.1167 4.6651 20.0456C4.66511 19.9984 4.65581 19.9517 4.63775 19.9081C4.61968 19.8645 4.59321 19.8248 4.55983 19.7915C4.52646 19.7581 4.48684 19.7316 4.44323 19.7135C4.39962 19.6955 4.35288 19.6862 4.30568 19.6862Z" fill="#001B48"/>
<path d="M3.03027 19.1414C3.22875 19.1414 3.38965 18.9805 3.38965 18.782C3.38965 18.5835 3.22875 18.4226 3.03027 18.4226C2.8318 18.4226 2.6709 18.5835 2.6709 18.782C2.6709 18.9805 2.8318 19.1414 3.03027 19.1414Z" fill="#001B48"/>
<path d="M1.97021 17.6924C2.16869 17.6924 2.32959 17.5315 2.32959 17.333C2.32959 17.1345 2.16869 16.9736 1.97021 16.9736C1.77174 16.9736 1.61084 17.1345 1.61084 17.333C1.61084 17.5315 1.77174 17.6924 1.97021 17.6924Z" fill="#001B48"/>
<path d="M1.15777 15.3733C1.08668 15.3733 1.01719 15.3944 0.958084 15.4339C0.898978 15.4733 0.852909 15.5295 0.825703 15.5952C0.798498 15.6608 0.791378 15.7331 0.805244 15.8028C0.819109 15.8725 0.853338 15.9366 0.903601 15.9868C0.953865 16.0371 1.0179 16.0713 1.08762 16.0852C1.15734 16.0991 1.22961 16.092 1.29528 16.0648C1.36096 16.0376 1.41709 15.9915 1.45659 15.9324C1.49608 15.8733 1.51716 15.8038 1.51716 15.7327C1.51716 15.6855 1.50787 15.6388 1.48981 15.5952C1.47175 15.5516 1.44527 15.5119 1.4119 15.4786C1.37853 15.4452 1.33891 15.4187 1.2953 15.4007C1.2517 15.3826 1.20496 15.3733 1.15777 15.3733Z" fill="#001B48"/>
<path d="M0.618652 14.3789C0.81713 14.3789 0.978027 14.218 0.978027 14.0196C0.978027 13.8211 0.81713 13.6602 0.618652 13.6602C0.420175 13.6602 0.259277 13.8211 0.259277 14.0196C0.259277 14.218 0.420175 14.3789 0.618652 14.3789Z" fill="#001B48"/>
<path d="M0.35791 12.6033C0.556387 12.6033 0.717285 12.4424 0.717285 12.2439C0.717285 12.0454 0.556387 11.8845 0.35791 11.8845C0.159433 11.8845 -0.00146484 12.0454 -0.00146484 12.2439C-0.00146484 12.4424 0.159433 12.6033 0.35791 12.6033Z" fill="#001B48"/>
<path d="M0.384766 10.8093C0.583243 10.8093 0.744141 10.6484 0.744141 10.4499C0.744141 10.2514 0.583243 10.0905 0.384766 10.0905C0.186288 10.0905 0.0253906 10.2514 0.0253906 10.4499C0.0253906 10.6484 0.186288 10.8093 0.384766 10.8093Z" fill="#001B48"/>
<path d="M1.05717 8.68203C1.05717 8.61095 1.03609 8.54146 0.996603 8.48236C0.957112 8.42326 0.900982 8.37719 0.835311 8.34999C0.76964 8.32279 0.697377 8.31567 0.627661 8.32954C0.557945 8.34341 0.493906 8.37763 0.443644 8.4279C0.393381 8.47816 0.359152 8.5422 0.345285 8.61191C0.331417 8.68163 0.338535 8.75389 0.365736 8.81956C0.392938 8.88524 0.439003 8.94137 0.498106 8.98086C0.557208 9.02035 0.626694 9.04143 0.697776 9.04143C0.793093 9.04142 0.884506 9.00356 0.951905 8.93616C1.0193 8.86876 1.05717 8.77735 1.05717 8.68203Z" fill="#001B48"/>
<path d="M1.65386 6.98996C1.65386 6.91888 1.63278 6.84939 1.59329 6.79029C1.5538 6.73118 1.49767 6.68512 1.432 6.65791C1.36633 6.63071 1.29406 6.62359 1.22434 6.63746C1.15463 6.65133 1.09059 6.68556 1.04032 6.73582C0.990061 6.78608 0.955832 6.85012 0.941964 6.91984C0.928097 6.98956 0.935215 7.06182 0.962417 7.12749C0.98962 7.19316 1.03569 7.2493 1.09479 7.28879C1.15389 7.32828 1.22338 7.34936 1.29446 7.34935C1.38978 7.34935 1.48119 7.31149 1.54859 7.24409C1.61599 7.17669 1.65386 7.08528 1.65386 6.98996Z" fill="#001B48"/>
</g>
<defs>
<clipPath id="clip0_196_113">
<rect width="23" height="23" fill="white"/>
</clipPath>
</defs>
</svg>
