<svg width="25" height="25" viewBox="0 0 25 25" fill="none" xmlns="http://www.w3.org/2000/svg">
<path d="M23.8187 4.82722L16.3667 2.49858C16.3365 2.48915 16.3049 2.48618 16.2736 2.48984C16.2423 2.4935 16.2121 2.50372 16.1845 2.51992C16.1569 2.53611 16.1326 2.55796 16.1129 2.58422C16.0932 2.61048 16.0785 2.64064 16.0697 2.67297L14.7599 7.5149V5.20678C14.7593 5.02402 14.725 4.84319 14.659 4.67464C14.5931 4.50609 14.4967 4.35312 14.3755 4.22449C14.2543 4.09585 14.1106 3.99409 13.9526 3.92501C13.7946 3.85593 13.6255 3.82089 13.4548 3.8219H12.7795V2.48063C12.78 2.254 12.7318 2.03029 12.6387 1.8268C12.5455 1.62332 12.4098 1.44552 12.2422 1.30718C12.0746 1.16883 11.8795 1.07364 11.6721 1.02897C11.4646 0.984307 11.2503 0.991364 11.0458 1.0496C1.02918 3.8732 1.22554 3.81678 1.16568 3.83986C1.10927 3.86102 1.06229 3.90402 1.03397 3.96039C0.98608 4.05528 1.00284 2.71913 1.00284 23.7435C1.00284 23.8116 1.02807 23.8768 1.07298 23.9249C1.11789 23.973 1.17879 24 1.2423 24H13.4548C13.7986 24 14.1284 23.8539 14.3717 23.5938C14.615 23.3337 14.7521 22.9808 14.7527 22.6126V21.3867L18.9624 22.6972C19.0234 22.7162 19.0889 22.7086 19.1446 22.6759C19.2003 22.6432 19.2416 22.5881 19.2594 22.5228L23.9911 5.14523C23.9998 5.11222 24.0021 5.07769 23.9981 5.04368C23.9941 5.00967 23.9837 4.97687 23.9676 4.94722C23.9515 4.91757 23.9301 4.89168 23.9045 4.87107C23.8789 4.85046 23.8498 4.83555 23.8187 4.82722ZM16.4625 3.07305L16.9174 3.2141C16.7402 3.8655 14.9658 10.4231 14.7623 11.1797V9.3537L16.4625 3.07305ZM11.168 1.54712C11.3015 1.50894 11.4414 1.50419 11.5769 1.53323C11.7124 1.56226 11.8398 1.62431 11.9494 1.71457C12.0589 1.80483 12.1475 1.92088 12.2084 2.05372C12.2693 2.18656 12.3009 2.33264 12.3006 2.48063V3.8219H3.09334L11.168 1.54712ZM1.48176 4.33482H2.34143V23.4871H1.48176V4.33482ZM14.281 22.6126C14.2807 22.7282 14.259 22.8426 14.2173 22.9492C14.1755 23.0558 14.1145 23.1526 14.0377 23.2338C13.9609 23.3151 13.8699 23.3793 13.7699 23.4228C13.6698 23.4662 13.5628 23.4881 13.4548 23.4871H2.82035V4.33482H13.4548C13.672 4.33482 13.8803 4.42723 14.0339 4.59171C14.1875 4.7562 14.2738 4.97929 14.2738 5.21191L14.281 22.6126ZM21.4217 12.7569L21.1008 12.6569C21.0398 12.6378 20.9743 12.6455 20.9186 12.6782C20.8629 12.7109 20.8217 12.766 20.8039 12.8313C20.7951 12.8636 20.7923 12.8975 20.7957 12.9309C20.7991 12.9644 20.8087 12.9969 20.8238 13.0264C20.8389 13.0559 20.8593 13.082 20.8838 13.1031C20.9084 13.1241 20.9365 13.1398 20.9667 13.1493L21.2876 13.2493L18.8762 22.133L14.7599 20.8507V17.3116L15.6435 14.0392C15.6613 13.9739 15.6541 13.9037 15.6236 13.8441C15.593 13.7844 15.5416 13.7402 15.4807 13.7212C15.4197 13.7021 15.3542 13.7098 15.2985 13.7425C15.2428 13.7752 15.2015 13.8303 15.1837 13.8956L14.7599 15.46V13.0134L15.2125 11.3464L15.5333 11.4464C15.5647 11.4631 15.5991 11.4722 15.6342 11.4731C15.6692 11.474 15.704 11.4667 15.7361 11.4516C15.7681 11.4365 15.7968 11.4141 15.8199 11.3859C15.843 11.3577 15.86 11.3244 15.8698 11.2884C15.8796 11.2524 15.8819 11.2145 15.8765 11.1774C15.8712 11.1403 15.8582 11.1049 15.8387 11.0738C15.8192 11.0426 15.7935 11.0164 15.7635 10.9971C15.7335 10.9777 15.6999 10.9656 15.665 10.9617L15.3442 10.8617L17.3772 3.36285L23.4547 5.25294L21.4217 12.7569Z" fill="#4A94D0" stroke="#4A94D0" stroke-width="0.26277"/>
<path d="M17.8022 4.92407C17.8307 4.92514 17.859 4.92975 17.8862 4.93872L17.9644 4.97778C18.2337 5.16907 18.3595 5.2864 18.4673 5.44263C18.5817 5.6086 18.6764 5.81682 18.8784 6.21021L18.9224 6.29614L19.0171 6.28052L21.0239 5.94653C21.0459 5.94283 21.0684 5.94293 21.0903 5.94653L21.1538 5.96802C21.1744 5.97888 21.1935 5.99357 21.2104 6.01099L21.2534 6.07153L21.2544 6.07349L21.3384 6.23267C21.3458 6.24763 21.3523 6.26321 21.3569 6.27954L21.3667 6.33228C21.3682 6.35021 21.3676 6.36825 21.3657 6.38599L21.355 6.43872C21.3497 6.45589 21.3428 6.47224 21.3345 6.48755L21.3062 6.52954C21.2852 6.55472 21.2601 6.57425 21.2329 6.58813L19.6235 7.35767L19.5015 7.41626L19.564 7.53638L20.2319 8.83423L20.2759 8.92017L20.3716 8.90356L21.1401 8.76782L21.144 8.76685C21.1659 8.76224 21.1885 8.76092 21.2104 8.76392L21.2749 8.7854C21.2954 8.79605 21.3148 8.80992 21.3315 8.82739L21.3745 8.88989L21.3755 8.89282L21.436 9.01099C21.4572 9.0527 21.4662 9.10039 21.4624 9.14771L21.4546 9.19556C21.4418 9.24198 21.4164 9.28104 21.3843 9.30981L21.3501 9.33521L20.4517 9.86646L20.4175 9.88599L20.4009 9.92114C20.3771 9.96943 20.3435 10.0103 20.3042 10.0413L20.2632 10.0696C20.2058 10.1018 20.1407 10.1139 20.0776 10.1057L20.0337 10.0999L19.9946 10.1223C19.5042 10.4114 19.273 10.5534 19.146 10.6243C19.0819 10.66 19.0542 10.6715 19.0396 10.676C19.0313 10.6785 19.0274 10.679 18.9976 10.679C18.9796 10.6791 18.9614 10.6762 18.9438 10.6711L18.8931 10.6487C18.8768 10.6384 18.8616 10.6254 18.8481 10.6106L18.813 10.5608V10.5598L18.7534 10.4446C18.7432 10.4233 18.7351 10.4008 18.731 10.3772L18.729 10.303C18.7341 10.2536 18.7523 10.2076 18.7808 10.1711L19.3022 9.54517L19.3589 9.47778L19.3179 9.40063L18.6431 8.1106L18.5737 7.97876L18.4507 8.06372L16.978 9.08911C16.9649 9.09813 16.9513 9.10573 16.937 9.11157L16.8931 9.12427C16.8782 9.12686 16.8632 9.12789 16.8481 9.1272L16.8032 9.12036C16.7885 9.11638 16.7741 9.11095 16.7603 9.10376L16.7202 9.07739C16.6951 9.05662 16.6737 9.02938 16.6577 8.99829H16.6567L16.5767 8.84009C16.565 8.81719 16.5561 8.79247 16.5513 8.76685L16.5483 8.68774C16.5536 8.63474 16.5729 8.58491 16.604 8.54614L16.605 8.54712L17.9409 6.9104L17.9946 6.84399L17.9556 6.76782C17.7396 6.34709 17.6252 6.14361 17.5571 5.95532C17.493 5.77787 17.4706 5.61435 17.4575 5.27954C17.4584 5.24655 17.4635 5.21396 17.4722 5.18286L17.5093 5.09399C17.5252 5.06636 17.5444 5.0414 17.5659 5.01978L17.6372 4.96509C17.6627 4.95047 17.6897 4.93976 17.7173 4.93286L17.8022 4.92407ZM17.6792 5.29614C17.6888 5.56276 17.6976 5.70289 17.7749 5.90063C17.8107 5.99233 17.8621 6.09861 17.9351 6.24146L18.2251 6.80298C18.2311 6.81467 18.2353 6.82777 18.2378 6.84106L18.2397 6.8811C18.2384 6.89491 18.2349 6.90807 18.23 6.92017L18.2114 6.95239L16.9253 8.52466L17.103 8.71509L18.5552 7.69067L18.5942 7.677C18.6076 7.67522 18.6211 7.67681 18.6343 7.68091L18.6724 7.70239L18.7017 7.74243L18.7036 7.74634L19.5757 9.44458C19.5817 9.45634 19.5859 9.4693 19.5884 9.48267L19.5903 9.52368C19.5874 9.55134 19.5759 9.57598 19.5601 9.59497L19.2026 9.99146L19.3657 10.1926C19.6904 10.0031 19.8449 9.90622 19.9399 9.85669C19.9854 9.833 20.0026 9.82826 20.0083 9.82739C20.0095 9.82723 20.0104 9.82714 20.0122 9.82739C20.0152 9.82783 20.0212 9.82933 20.0337 9.83325L20.1626 9.87329L20.1997 9.74438C20.2078 9.71629 20.2112 9.71033 20.2144 9.7063C20.2195 9.69964 20.2331 9.68592 20.2759 9.65747C20.3646 9.59847 20.5229 9.51131 20.8462 9.32056L20.7563 9.07837L20.2397 9.16919H20.2104C20.2008 9.16735 20.1913 9.16346 20.1821 9.15845C20.1727 9.1533 20.1638 9.14635 20.1558 9.13794L20.1353 9.10864L19.2632 7.41138L19.2485 7.3606C19.247 7.34225 19.2491 7.32311 19.2544 7.30591L19.2788 7.26099L19.314 7.23267L20.9019 6.46411L20.8218 6.21606L18.8872 6.54321H18.8579L18.8286 6.53247C18.8194 6.5274 18.8111 6.52015 18.8032 6.51196L18.7817 6.48267C18.5321 5.99717 18.4117 5.74377 18.3062 5.58228C18.1911 5.40622 18.086 5.32789 17.8862 5.18481L17.6694 5.02856L17.6792 5.29614Z" fill="#4A94D0" stroke="#4A94D0" stroke-width="0.26277"/>
<path d="M16.2358 11.2681L16.2749 11.272L16.8228 11.4439L16.8325 11.4468L16.8433 11.4478C16.8563 11.4498 16.8693 11.4549 16.8813 11.4625L16.9146 11.4947C16.924 11.5082 16.931 11.5238 16.9351 11.5406L16.938 11.5933C16.9356 11.6115 16.9304 11.6286 16.9224 11.6431L16.8921 11.6793C16.8687 11.6981 16.841 11.7037 16.8149 11.6998C16.6154 11.6622 16.4193 11.6057 16.23 11.5279L16.1821 11.6431L16.23 11.5269L16.2183 11.523L16.1802 11.5025L16.1509 11.4644C16.1434 11.4493 16.1387 11.4323 16.1372 11.4146L16.1431 11.3609L16.144 11.357C16.1484 11.3402 16.1561 11.3249 16.1655 11.3121L16.1987 11.2818L16.2358 11.2681Z" fill="#4A94D0" stroke="#4A94D0" stroke-width="0.26277"/>
<path d="M17.4702 11.6565L18.021 11.8254C18.0336 11.8294 18.046 11.8364 18.0571 11.8459L18.0854 11.8831L18.1001 11.9319L18.0962 11.9836C18.087 12.0175 18.0659 12.0434 18.0415 12.0579C18.0294 12.0649 18.0164 12.069 18.0034 12.0706L17.9644 12.0676V12.0667L17.4155 11.8977L17.3784 11.8772L17.3491 11.8411L17.3345 11.7913C17.3327 11.7738 17.3349 11.7561 17.3394 11.7395L17.3384 11.7385C17.343 11.7222 17.3508 11.7077 17.3599 11.6956L17.3931 11.6653C17.4051 11.6582 17.4182 11.6541 17.4312 11.6526L17.4702 11.6565Z" fill="#4A94D0" stroke="#4A94D0" stroke-width="0.26277"/>
<path d="M18.6279 12.0244L18.667 12.0284L19.2178 12.1973C19.2304 12.2013 19.2428 12.2083 19.2539 12.2178L19.2822 12.2549C19.2899 12.27 19.2951 12.2866 19.2969 12.3037L19.293 12.3555C19.2837 12.3894 19.2628 12.4153 19.2383 12.4297C19.2262 12.4368 19.2132 12.4409 19.2002 12.4424L19.1621 12.4395L19.1611 12.4385L18.6104 12.2696H18.6113C18.5984 12.2655 18.5855 12.2588 18.5742 12.2491L18.5459 12.2129C18.5381 12.1977 18.533 12.1804 18.5312 12.1631L18.5361 12.1114C18.5408 12.0945 18.5483 12.0798 18.5576 12.0674L18.5898 12.0371L18.6279 12.0244Z" fill="#4A94D0" stroke="#4A94D0" stroke-width="0.26277"/>
<path d="M20.415 12.5724V12.5715C20.4271 12.5755 20.4386 12.5829 20.4492 12.592L20.4775 12.6271C20.4923 12.6553 20.4962 12.6894 20.4893 12.7219C20.4845 12.7382 20.4779 12.7527 20.4688 12.7648L20.4355 12.7951C20.4238 12.8019 20.4111 12.8053 20.3984 12.8068L20.3594 12.8039V12.8029L19.8262 12.6359C19.8188 12.6307 19.811 12.6256 19.8047 12.6183L19.7822 12.5812C19.7768 12.5673 19.7742 12.5523 19.7734 12.5373L19.7783 12.4924C19.7825 12.4775 19.7889 12.4639 19.7969 12.4523L19.8242 12.424C19.8421 12.4111 19.8621 12.4053 19.8818 12.4055L20.415 12.5724Z" fill="#4A94D0" stroke="#4A94D0" stroke-width="0.26277"/>
<path d="M16.2056 15.447L16.2173 15.4499L16.2563 15.4684L16.2886 15.5056L16.3042 15.5563L16.3003 15.611L16.2993 15.613L15.6265 18.0905C15.6187 18.1188 15.6031 18.1418 15.5835 18.1569C15.564 18.1719 15.5416 18.1793 15.52 18.1784L15.5142 18.2985L15.52 18.1774L15.5083 18.1784L15.4624 18.1677C15.4475 18.1603 15.4337 18.1489 15.4224 18.1335L15.3989 18.0778L15.4019 18.0153L16.0747 15.53C16.0793 15.5132 16.0869 15.4984 16.0962 15.486L16.1294 15.4557C16.1412 15.4489 16.1538 15.4446 16.1665 15.4431L16.2056 15.447Z" fill="#4A94D0" stroke="#4A94D0" stroke-width="0.26277"/>
<path d="M17.6465 14.5432V14.5442L17.6572 14.5471L17.6963 14.5647L17.7275 14.6009L17.7441 14.6507C17.7465 14.668 17.7452 14.6856 17.7412 14.7024L16.9795 17.5237C16.9756 17.5378 16.9702 17.5507 16.9629 17.5618L16.9365 17.5901C16.917 17.6051 16.8947 17.6125 16.873 17.6116L16.8672 17.7317L16.873 17.6106L16.8613 17.6116C16.8459 17.6122 16.8302 17.6082 16.8154 17.6009L16.7754 17.5667L16.752 17.511L16.7549 17.4485L17.5166 14.6272L17.5156 14.6263C17.5202 14.6099 17.528 14.5955 17.5371 14.5833L17.5703 14.553C17.5942 14.539 17.6215 14.5357 17.6465 14.5432Z" fill="#4A94D0" stroke="#4A94D0" stroke-width="0.26277"/>
<path d="M18.2964 16.5651C18.3091 16.5691 18.3214 16.5761 18.3325 16.5856L18.3608 16.6227C18.3686 16.6379 18.3738 16.6544 18.3755 16.6716L18.3716 16.7233V16.7243L17.564 19.7653V19.7663C17.5564 19.7949 17.5407 19.8182 17.521 19.8337C17.5112 19.8413 17.5005 19.8467 17.4897 19.8503L17.4565 19.8552H17.4458L17.3999 19.8454C17.3849 19.838 17.3712 19.8258 17.3599 19.8102L17.3364 19.7556L17.3394 19.6931L18.1655 16.6481C18.1702 16.6313 18.1777 16.6166 18.187 16.6042L18.2192 16.5739C18.2312 16.5669 18.2444 16.5628 18.2573 16.5612L18.2964 16.5651Z" fill="#4A94D0" stroke="#4A94D0" stroke-width="0.26277"/>
<path d="M19.0347 18.2507L19.0708 18.2702L19.1001 18.3073L19.1147 18.3562L19.1108 18.4079L18.6489 20.1081L18.6274 20.153L18.5942 20.1823L18.5562 20.195L18.5181 20.1921L18.481 20.1716L18.4526 20.1345L18.438 20.0857L18.4429 20.0339L18.9048 18.3337C18.9094 18.3169 18.9169 18.3022 18.9263 18.2898L18.9585 18.2605C18.9706 18.2533 18.9836 18.2483 18.9966 18.2468L19.0347 18.2507Z" fill="#4A94D0" stroke="#4A94D0" stroke-width="0.26277"/>
<path d="M18.7095 14.8732L18.7515 14.8771L18.7915 14.8986L18.8228 14.9377L18.8384 14.9894C18.8404 15.0071 18.8395 15.0251 18.8354 15.0421L18.6538 15.6916V15.6925C18.6492 15.7093 18.6416 15.7241 18.6323 15.7365L18.5991 15.7668C18.587 15.7739 18.574 15.7779 18.561 15.7794L18.5229 15.7755L18.519 15.7746L18.4819 15.755L18.4517 15.7169L18.437 15.6671L18.4419 15.6144L18.4429 15.6115L18.6108 14.9699L18.6333 14.9211C18.6433 14.9073 18.6555 14.8968 18.6685 14.8888L18.7095 14.8732Z" fill="#4A94D0" stroke="#4A94D0" stroke-width="0.26277"/>
<path d="M16.5449 18.4641L16.583 18.468L16.5938 18.4709L16.6318 18.4885C16.6439 18.4976 16.6556 18.5099 16.6641 18.5247C16.6725 18.5394 16.6782 18.5565 16.6807 18.5745C16.683 18.5918 16.6817 18.6094 16.6777 18.6262L16.4619 19.4241C16.458 19.4381 16.4526 19.451 16.4453 19.4622L16.4189 19.4905C16.3995 19.5055 16.3771 19.5128 16.3555 19.512L16.3496 19.6321L16.3555 19.511L16.3438 19.512L16.2979 19.5012C16.283 19.4938 16.2691 19.4825 16.2578 19.467L16.2344 19.4114L16.2373 19.3489L16.4521 18.551L16.4736 18.5071L16.5068 18.4768L16.5449 18.4641Z" fill="#4A94D0" stroke="#4A94D0" stroke-width="0.26277"/>
<path d="M15.269 18.7567L15.3071 18.7606L15.3179 18.7635L15.356 18.7811L15.3872 18.8172L15.4038 18.867C15.4061 18.8844 15.4049 18.9019 15.4009 18.9188L15.3579 19.0799C15.3541 19.094 15.3486 19.1069 15.3413 19.118L15.3149 19.1473C15.3052 19.1548 15.2944 19.1595 15.2837 19.1629L15.2515 19.1678H15.2397L15.1938 19.1581C15.1789 19.1506 15.1652 19.1385 15.1538 19.1229L15.1304 19.0682L15.1333 19.0057L15.1763 18.8465V18.8456L15.1978 18.8006L15.231 18.7704L15.269 18.7567Z" fill="#4A94D0" stroke="#4A94D0" stroke-width="0.26277"/>
<path d="M16.5449 14.2006L16.5557 14.2035C16.5688 14.2065 16.5818 14.2122 16.5938 14.2211L16.625 14.2572L16.6416 14.307C16.644 14.3251 16.6421 14.3433 16.6377 14.3607L16.5371 14.7328H16.5361C16.5284 14.7613 16.5129 14.785 16.4932 14.8002C16.4833 14.8078 16.4727 14.8134 16.4619 14.8168L16.4297 14.8207H16.418L16.3721 14.8109L16.332 14.7768L16.3086 14.7211L16.3115 14.6586L16.4141 14.2846V14.2836C16.4187 14.2668 16.4263 14.2521 16.4355 14.2397L16.4688 14.2094C16.4809 14.2023 16.4938 14.1982 16.5068 14.1967L16.5449 14.2006Z" fill="#4A94D0" stroke="#4A94D0" stroke-width="0.26277"/>
<path d="M4.80322 18.2231H12.103C12.2177 18.2394 12.3267 18.2879 12.4185 18.3647L12.5063 18.4526C12.6142 18.5828 12.6745 18.7532 12.6743 18.9301V20.6684L12.6606 20.81C12.6432 20.9021 12.6094 20.9894 12.561 21.0668L12.478 21.1752C12.3542 21.3077 12.188 21.3807 12.0171 21.3813H4.80322L4.67627 21.3676C4.59334 21.3496 4.51404 21.314 4.44287 21.2631L4.34229 21.1752C4.21816 21.0423 4.14754 20.86 4.14697 20.6684V18.935L4.15967 18.7944C4.17703 18.7023 4.21106 18.615 4.25928 18.5375L4.34229 18.4291C4.43508 18.3298 4.55182 18.2638 4.67627 18.2368L4.80322 18.2231ZM4.71533 18.477L4.63135 18.5043C4.60441 18.5163 4.57905 18.5312 4.55518 18.5483L4.48877 18.6059C4.46867 18.6274 4.45064 18.6513 4.43506 18.6762L4.39502 18.7563C4.37369 18.8116 4.36279 18.8708 4.36279 18.9301V20.6635C4.36279 20.6934 4.36516 20.7232 4.37061 20.7524L4.39502 20.8373C4.40572 20.865 4.41945 20.8914 4.43506 20.9164L4.48877 20.9868C4.50903 21.0085 4.53119 21.0282 4.55518 21.0453L4.63135 21.0893C4.68542 21.1133 4.7441 21.1254 4.80322 21.1254H12.0181V21.1245C12.047 21.1251 12.0757 21.1238 12.104 21.1186L12.1919 21.0922C12.2201 21.0803 12.2471 21.0658 12.272 21.0483L12.3403 20.9877C12.3612 20.9654 12.3801 20.9414 12.396 20.9155L12.436 20.8325C12.456 20.7785 12.4647 20.7211 12.4644 20.6635H12.4653V20.6557C12.4653 19.7185 12.4668 19.2768 12.4644 19.061C12.4632 18.9557 12.4619 18.8957 12.4565 18.8569C12.4511 18.8181 12.4379 18.7931 12.4312 18.7787H12.4331C12.4114 18.7119 12.3748 18.6511 12.3267 18.601L12.2749 18.5551C12.2008 18.4988 12.1111 18.4672 12.0181 18.4672H4.80322C4.77366 18.4672 4.74406 18.4709 4.71533 18.477Z" fill="#4A94D0" stroke="#4A94D0" stroke-width="0.26277"/>
<path d="M8.41602 6.91782C9.11301 6.91782 9.79886 7.10035 10.4131 7.44907L10.6709 7.60825C11.2636 8.00383 11.7562 8.54931 12.1064 9.19516L12.248 9.47739C12.5276 10.0891 12.6759 10.7592 12.6836 11.4383L12.6787 11.7293C12.646 12.4099 12.4723 13.0727 12.1719 13.6698L12.0352 13.9217C11.6508 14.5815 11.1164 15.1247 10.4834 15.5008C9.85043 15.8769 9.13861 16.0741 8.41602 16.0741C7.78404 16.074 7.16063 15.9231 6.59082 15.6336L6.34961 15.5008C5.71659 15.1247 5.18224 14.5815 4.79785 13.9217C4.46141 13.3442 4.24939 12.6941 4.17676 12.0194L4.1543 11.7293C4.12163 11.0486 4.23176 10.3703 4.47363 9.74301L4.58496 9.47739C4.89368 8.80381 5.35083 8.22418 5.91406 7.78696L6.16211 7.60825C6.83916 7.1565 7.61994 6.91791 8.41602 6.91782ZM6.96484 13.7245C7.11947 14.3438 7.33823 14.8566 7.58496 15.2176C7.82595 15.5702 8.11773 15.8122 8.42578 15.8123C8.73376 15.8123 9.02368 15.5734 9.2627 15.2215C9.50711 14.8617 9.72338 14.3487 9.87793 13.7245L9.91797 13.5614H6.92383L6.96484 13.7245ZM4.95996 13.7586C5.48676 14.6783 6.31951 15.3538 7.29395 15.6473L7.64648 15.7538L7.44043 15.4481C7.08176 14.9168 6.83098 14.3103 6.7041 13.6678L6.68262 13.5614H4.84668L4.95996 13.7586ZM10.1172 13.6678C9.98983 14.3102 9.73817 14.9165 9.37988 15.4481L9.1748 15.7538L9.52734 15.6473C10.5011 15.3537 11.3336 14.6782 11.8594 13.7586L11.9717 13.5614H10.1377L10.1172 13.6678ZM4.71289 9.72836C4.48061 10.2789 4.3604 10.8758 4.36035 11.4793C4.36035 12.083 4.48053 12.6806 4.71289 13.2313L4.74707 13.3114H6.63574L6.61133 13.159C6.43281 12.0477 6.43284 10.9119 6.61133 9.80063L6.63574 9.64828H4.74707L4.71289 9.72836ZM6.84082 9.75766C6.64802 10.8965 6.648 12.0631 6.84082 13.202L6.85938 13.3114H9.97363L9.99219 13.202C10.185 12.0632 10.185 10.8965 9.99219 9.75766L9.97363 9.64828H6.85938L6.84082 9.75766ZM10.2119 9.80063C10.3904 10.9119 10.3904 12.0477 10.2119 13.159L10.1875 13.3114H12.0869L12.1201 13.2303C12.2768 12.8495 12.3812 12.4464 12.4307 12.034L12.4316 12.0262V12.0184C12.4316 11.2266 12.5077 10.6848 12.1201 9.73032L12.0869 9.64828H10.1875L10.2119 9.80063ZM7.30371 7.31723C6.33137 7.60993 5.49963 8.28359 4.97363 9.20102L4.86133 9.39828H6.69238L6.71387 9.29184C6.84116 8.65107 7.09195 8.04613 7.4502 7.51645L7.65723 7.21078L7.30371 7.31723ZM8.4043 7.15317C8.09055 7.15966 7.80105 7.39668 7.5625 7.74887C7.31973 8.10744 7.10751 8.616 6.95312 9.23422L6.91211 9.39828H9.91602L9.875 9.2352C9.78365 8.86603 9.61803 8.35801 9.38379 7.9393C9.2667 7.73008 9.12846 7.53678 8.96973 7.39438C8.81049 7.25157 8.62202 7.15327 8.40723 7.15317V7.15219L8.4043 7.15317ZM9.37988 7.51645C9.7373 8.04677 9.98888 8.65132 10.1172 9.29184L10.1387 9.39828H11.9697L11.8564 9.20102C11.3305 8.28372 10.4996 7.60994 9.52734 7.31723L9.1748 7.21078L9.37988 7.51645Z" fill="#4A94D0" stroke="#4A94D0" stroke-width="0.26277"/>
</svg>
