<svg width="12" height="15" viewBox="0 0 12 15" fill="none" xmlns="http://www.w3.org/2000/svg">
<path d="M11.4667 8.8386L11.4589 8.83653C11.4589 8.83653 11.393 8.81914 11.2968 8.81483C11.2607 8.81068 11.2307 8.80094 11.1903 8.80094H7.47915C7.47915 8.80094 7.43683 8.80158 7.37527 8.81116C7.33872 8.80988 7.30104 8.8102 7.26065 8.81387L4.15927 9.08387L3.6163 7.5987H8.42418C8.42418 7.5987 9.1459 7.5987 9.1459 6.88029V6.87199C9.1459 6.87199 9.1459 6.15342 8.42418 6.15342H3.08791L2.16853 3.63913C2.16853 3.63913 2.16692 3.63499 2.16516 3.63084V1.07778C2.16516 1.07778 2.16516 0 1.08258 0C1.08258 0 0 -7.60918e-08 0 1.07778V3.76775C0 3.76775 0.00128247 3.94855 0.0751858 4.16159C0.0883313 4.2302 0.106126 4.30106 0.13386 4.3767L2.64722 11.2506C2.64722 11.2506 2.7107 11.4202 2.85386 11.5956C3.00631 11.8184 3.26922 12.0119 3.72771 12.0119H6.03058V13.8584H3.06659C3.06659 13.8584 2.52522 13.8584 2.52522 14.3973V14.4613C2.52522 14.4613 2.52522 15 3.06659 15H10.4237C10.4237 15 10.965 15 10.965 14.4613V14.3973C10.965 14.3973 10.965 13.8584 10.4237 13.8584H7.45975V12.0119H10.3755C10.3755 12.0119 10.3811 12.0118 10.3902 12.0115H10.7775C10.9948 12.0218 11.3723 11.9658 11.5023 11.4823L11.9773 9.71835C11.9773 9.71835 12.1639 9.02451 11.4667 8.8386Z" fill="#001B48"/>
</svg>
