<?xml version="1.0" encoding="UTF-8"?>
<svg id="Layer_2" data-name="Layer 2" xmlns="http://www.w3.org/2000/svg" viewBox="0 0 1080 1080">
  <defs>
    <style>
      .cls-1 {
        fill: #4a94cf;
      }

      .cls-2 {
        fill: #fff;
      }
    </style>
  </defs>
  <g id="Layer_1-2" data-name="Layer 1">
    <g>
      <circle class="cls-1" cx="540" cy="540" r="540"/>
      <g>
        <path class="cls-2" d="M332.09,421.41c45.86-15.29,57.51-78.31,20.84-109.14-4.36-3.67-22.75-14.65-27.03-14.65h-114v188.77h46.58v-61.29l26.95,1.24c7.54,6.3,41.61,60.04,45.37,60.04h52.71l-51.42-64.98ZM311.19,388.33h-55.16c-.91-2.64,2.45-5.38,2.45-6.13v-41.68c0-.4-4.23-6.13,1.23-6.13h49.03c1.6,0,12.77,5.55,14.61,7.46,12.27,12.8,6.49,46.47-12.16,46.47Z"/>
        <path class="cls-2" d="M611.51,297.62v102.97c7.76-3.74,32.62-46.58,35.55-46.58h47.81l-45.77,62.5,53.12,69.89h-50.26l-40.45-51.48v51.48h-44.13v-188.77h44.13Z"/>
        <path class="cls-2" d="M856.67,486.39h-44.13v-84.58c0-8.4-17.03-16.44-25.45-15.84-11.01.78-26.03,11.84-26.03,23.19v77.22h-41.68v-132.38h36.77c.63,0,1.14,10.08,2.48,12.25,25.24-21.56,68.49-24.15,87.83,6.53,3.14,4.99,10.2,24.11,10.2,29.02v84.58Z"/>
        <path class="cls-2" d="M442.35,354.01v82.13c0,1.58,6.6,11.33,8.91,13.15,16.67,13.15,42.57-1.35,42.57-20.51v-74.77h41.68v132.38h-36.77c-.63,0-1.17-10.09-2.48-12.25-26.44,22.76-75.47,21.84-91.1-13.07-2.43-5.42-6.93-22.36-6.93-27.39v-79.68h44.13Z"/>
        <path class="cls-2" d="M434.26,554.53c-.61,0,.45,10.31-.01,12.25-8.19-1.51-13.33-8.77-21.34-11.74-43.77-16.21-86.88,13.04-89.07,59.44-3.16,66.91,58.47,98.5,110.39,57.73.58,2.99-.73,13.95.02,14.71,1.39,1.39,33.47-1.03,39.23,0v-132.39h-39.23ZM394.08,654.87c-27.1-3.01-36.97-43.46-17.91-60.36,4.35-3.85,18.8-8.43,24.7-8.02,41.97,2.89,38.13,73.36-6.79,68.38Z"/>
        <path class="cls-2" d="M649.88,624.46c2.56,71.1,92.26,84.95,137.35,44.07-3.87-2.88-21.17-22.87-23.22-22.88-.63,0-6.73,5.3-10.33,6.46-23.41,7.54-51.33,9.25-59.56-19.12h98.06c22.13-105.08-146.04-112.52-142.31-8.52ZM694.13,608.46c1.99-32.1,59.23-33.28,58.83,0h-58.83Z"/>
        <path class="cls-2" d="M987.92,590.98c-1.77,1.04-30.77-7.78-40-7.12-20.56,1.49-28.76,14.53-4.37,19.12,26.76,5.04,65.06,6.59,63.73,45.28-1.88,54.54-90.83,50.03-123.31,26.47-1.62-2.47,12.74-28.76,15.1-29.31,14.49,6.13,46.5,17.06,60.57,9.15,28.23-15.87-36.37-20.77-42.37-22.88-18.98-6.67-31.75-23.36-29.27-43.84,5.57-46.04,86.19-46.41,114.97-22.3-5.5,3.14-12.24,23.77-15.06,25.42Z"/>
        <path class="cls-2" d="M537.23,554.53l30.64,85.83c4.61-9.74,29.28-85.83,34.32-85.83h42.9l-57.52,132.55-42.66-.5-56.72-132.05h49.03Z"/>
        <rect class="cls-2" x="816.71" y="498.14" width="44.13" height="188.77"/>
        <path class="cls-2" d="M252.85,686.91h-44.13v-132.38h39.22c.74,0,.33,12.03,2.48,14.69l12.95-12.74c10.34-11.26,55.36-5.01,55.63,9.03.04,1.85-13.35,26.39-14.66,27.21-4.58,2.89-29.37-14.57-45.49,5.83-1.58,2-6.01,9.49-6.01,11.15v77.22Z"/>
        <g>
          <path class="cls-2" d="M989.53,452.43c1.16-5.41,1.71-10.87,1.63-16.4,0-.34-.01-.69-.02-1.04-.12-4.26-.6-8.55-1.45-12.88,0-.01,0-.02,0-.04-.04-.21-.08-.41-.13-.62-.02-.12-.05-.23-.07-.35,3.56-.99,3.33-6.06.53-7.27-.57-.25-1.25-.34-2.03-.19,3.42-5.57-7.42-18.34-13.42-17.9t0,0c-.38-.48-.77-.95-1.18-1.4-.18-.2-.37-.41-.55-.6-1.6-1.69-3.38-3.15-5.29-4.38-12.56-8.11-30.93-6.67-43.68,1.91-13.16,6.5-23,26.4-22.26,40.78.64,12.41,11.02,34.54,16.51,46.26,3.03,6.48,29.3,57.91,32.6,57.63,3.46-12.1,7.95-23.78,13.47-35.04l-1.53-3.74c.38,0,.76-.08,1.13-.21,4.52-1.52,8.73-10.98,6.32-14.71,1.25-.17,2.4-.66,3.47-1.48,2.05-1.57,3.78-4.33,5.18-8.27,3.66.79,6.25-.43,7.76-3.67,2.03-4.69,3.97-7.79,5.97-13.42-.57-1.73-1.22-3.31-2.93-2.98ZM930.51,450.98c-27.32-28.03,17.14-67.14,42.04-38.32,22.87,26.47-16.92,64.1-42.04,38.32Z"/>
          <path class="cls-2" d="M962.63,497.17c3.15-.86,8.51.4,7.46,4.47-6.09,11.45-10.76,24.21-19.39,34.3-1.12-14.21,6.23-26.49,11.93-38.78Z"/>
          <path class="cls-2" d="M989.48,421.1c2.78.02,4.17,1.82,4.18,5.4,3.73,1.09,4.29,2.8,4.77,6.53-.86,9.28-3.06,14.16-5.97,22.37h-7.44c4.18-11.4,5.24-22.15,4.46-34.3Z"/>
          <path class="cls-2" d="M973.07,388.29c11.66,5.84,20.16,15.78,23.86,28.34-2.34,1.58-4.4.68-6.17-2.72l-2.78-.26c-2.99-7.23-8.81-11.89-13.42-17.9-1.83-1.17-1.97-1.73-.25-1.21-6.12-3.05-11.46-8.5-1.25-6.25Z"/>
          <path class="cls-2" d="M973.07,388.29c-2.53-.15-3.48-.54-2.98,2.22,1.23,1.74,4.02,2.23,5.2,3.76.53.69-.79,1.41-.74,1.47-16.32-11.09-32.74-13.35-50.71-4.47,13.74-12.23,33.55-10.84,49.22-2.98Z"/>
          <path class="cls-2" d="M977.54,486.73c-2.48,5.05-4.87,10.04-7.46,14.92-2.87-1.68-5.79-.45-7.46-4.47,2.55-5.51,4.32-9.55,7.46-14.92,1.81-4.12,9.01.45,7.46,4.47Z"/>
          <path class="cls-2" d="M996.93,416.63c2.03,6.88,2.07,10.12,1.49,16.41-.84-1.49-5.01-4.01-5.96-2.98-.77.84,1.64,6.3-1.48,5.96.96-5.42-.57-10.09-1.51-14.91-.48-2.45-.53-5.12-1.49-7.46,1.57-1.63,1.06-3.75,3.71-2.98l5.23,5.96Z"/>
          <path class="cls-2" d="M986.49,468.83c-2.77,6.39-5.94,11.78-8.95,17.9l-7.46-4.47c1.5-2.57,5.58-11.71,7.38-12.7,1.41-.77,4.4,1.14,6.61.88,1.33-.16.64-5.6,2.42-1.6Z"/>
        </g>
        <path class="cls-2" d="M208.72,498.14v39.22h-58.84v145.87c0,.75,3.1,1.88,2.45,3.68h-46.58v-149.55h-55.16c-3.95,0-.95-22.42-1.09-28.34-.1-4.18-.78-7.2-2.58-10.88h161.8Z"/>
        <path class="cls-2" d="M869.82,716.14c3.2-.15,5.67-.5,8.03,1.92,3.23,3.3,10.04,19.09,11.89,20.63.84.69,1.87.13,2.74-.82,4.23-4.66,9.25-22.43,16.45-21.82,1.17.1,3.34,1.29,3.34,2.09v34.5c0,2.35-6.98,3.14-8.59-.59-.91-2.12,2.48-14.99-.05-18.66-5,1.42-7.7,16.27-12.06,17.2-4.92,1.05-10.09-19.51-15.12-15.85,1.49,4.05,2.38,13.81,1.13,17.7-1.27,3.93-7.76,2.03-7.76.2v-36.49Z"/>
        <path class="cls-2" d="M775.44,723.61c-3.82-7.39-25.58-10.26-30.43-6.89-1.75,1.22-1.97,34.77-.66,36.65,1.23,1.76,5.88,1.8,7.47.67,2.86-2.02-.26-8.52,2.02-10.17,2.1-1.52,6.08-1.21,8.13.53,3.75,3.2,6.08,15.8,14.94,8.23-1.21-1.77-7.99-9.59-7.88-10.64.13-1.36,12.76-6.1,6.41-18.39ZM767.69,731.32c-.94,6.72-9.79,4.47-14.64,4.73.56-2.76-.91-9.99.2-11.75,2.06-3.27,15.69-1.89,14.44,7.02Z"/>
        <path class="cls-2" d="M645.23,716.45c-21.5,4.43-18.42,41.67,10.2,38.05,26.59-3.36,22.5-44.79-10.2-38.05ZM659.81,744.94c-11.92,9.72-28.93-10.12-14.88-19.51,14.03-9.38,26,10.45,14.88,19.51Z"/>
        <path class="cls-2" d="M268.85,741.99c.1-1.18,10.78-4.14,7.03-16.34-1.42-4.61-7.23-8.76-11.73-9.51-6.03-1-14.24.73-20.56,0v36.49c0,2.38,8.16,3.82,8.89-2.38.27-2.27-2.39-7.06,3.78-7.63,7.42-.69,6.95,12.19,15.87,12.07,10.45-.14-3.58-9.13-3.28-12.69ZM266.82,733.4c-1.94,3.91-10.29,3-14.03,2.06-1.64-1.14-1.88-9.85-1.05-11.16,2.24-3.56,20.18-1.17,15.08,9.1Z"/>
        <path class="cls-2" d="M542.41,744.7c-.04-1.21,6.94-8.06.15-9.82-4.95-1.29-2.86,5.33-7.51,3.63-2.21-.8-4.66-4.11-3.37-6.28.19-.31,2.75-.84,3.83-2.08,9.57-10.98-10.1-19.18-17.99-11.42-7.2,7.07,1.42,11.23.83,15.2-.15.98-13.86,6.55-5.44,16.08,3.91,4.43,10.81,5.25,16.3,4.29,2.5-.44,7.4-3.38,8.3-3.3,2.08.18,2.83,5.58,6.67,2.38,5.26-4.4-1.7-7.17-1.75-8.68ZM522.24,722.84c1.4-1.97,8.13-1.45,9.23,1.93-1.46,1.82-5.58,6.21-7.92,4.63-.28-.19-1.77-5.91-1.31-6.56ZM521.81,747.71c-6.34-1.87-2.37-9.63,1.24-10.24.48-.08,7.9,5.06,8.14,5.49,3.39,6.12-4.73,6.13-9.38,4.76Z"/>
        <path class="cls-2" d="M424.03,716.14v6.64c-3.84.66-17.44-1.46-19.33,1.23-1.13,1.6-1.08,6.24.67,7.47,3.2,2.24,19.78-2.61,17.31,5.21-1.17,3.71-15.07,1.38-18.57,2v7.97h19.24c2.63,0,2.63,7.96,0,7.96h-26.54c-.14,0-1.99-1.85-1.99-1.99v-34.5c0-.14,1.85-1.99,1.99-1.99h27.2Z"/>
        <path class="cls-2" d="M698.66,716.14v25.87c0,.35,3.23,3.34,4.11,3.88,7.23,4.41,12.36-1.85,13.14-9.19.48-4.54-1.49-17.13-1.17-18.47.73-3,6.61-2.03,9.13-2.09v27.2c0,3.8-7.57,10.14-11.58,10.97-13.72,2.84-21.27-4.65-22.78-17.74-.98-8.52-3.23-24.04,9.15-20.42Z"/>
        <path class="cls-2" d="M315.01,716.37c-1.62-1-8.22-.63-9.71,1.12-5.72,6.68-8.81,26.14-15.09,34.04,5.59,10.38,9.8-5.06,12.63-6,1.64-.54,15.28-.54,16.16,0,2.1,1.31,1.82,12.76,12.14,9.06-1.66-4.9-14.36-37.15-16.13-38.24ZM304.62,738.69l3.98-11.93c2.39-2.24,7.29,10.02,7.94,11.93h-11.93Z"/>
        <path class="cls-2" d="M848.53,725.39c-1.05.75-17.17-6.97-18.44.87-1.06,6.53,16.48,5.95,20.47,11.13,5.21,6.76-1.71,15.02-8.51,16.66-4.46,1.08-17.95.2-20.71-3.36-.99-1.28,1.91-6.37,2.19-6.57,1.46-1.05,9.83,6.11,16.77,2.89,6.22-2.89,2.95-5.47-1.41-7.17-6.89-2.7-18.72-2.88-17.51-13.24.46-3.93,5.8-9.31,9.58-10.16,6.91-1.56,23.32-1.64,17.57,8.97Z"/>
        <path class="cls-2" d="M359.02,741.35c2.13.42,2.77-.55,3.8-2.16,4.8-7.48,4.54-26.48,17.41-23.04l-15.78,37.64c-1.43,1.89-8.16,1.36-9.31-1.28-.94-4.98-16.31-34.84-14.7-36.37,12.71-3.09,14.7,16.22,18.58,25.2Z"/>
        <path class="cls-2" d="M227.67,716.14c.17,4.66.87,7.97-4.65,8.09-1.79.04-7.29-2.21-7.29.54v27.86c0,2.71-9.29,2.71-9.29,0v-27.86c0-2.76-5.44-.45-7.24-.58-9.9-.73-5.6-8.04-4.04-8.04h32.51Z"/>
        <path class="cls-2" d="M605.79,724.1v28.53c0,3.28-9.29,1.16-9.29.66v-24.54c0-.84,2.74-3.54-1.27-5.27-1.82-.79-7.89,2.5-10.1-.6-1.43-2-.26-6.73,1.42-6.73h30.52c1.73,0,3.31,5.61.73,7.37-2.87,1.96-8.52-1.08-12.01.59Z"/>
        <path class="cls-2" d="M451.89,746.66c3.94.73,14.57-1.29,17.31.6,2.6,1.79,1,7.36-.73,7.36h-23.88c-.14,0-1.99-1.85-1.99-1.99v-36.49c1.88-.22,9.29-.35,9.29,1.99v28.53Z"/>
        <path class="cls-2" d="M803.48,716.14v36.49c0,2.71-9.29,2.71-9.29,0v-34.5c0-2.34,7.41-2.21,9.29-1.99Z"/>
      </g>
    </g>
  </g>
</svg>