<?xml version="1.0" encoding="UTF-8"?>
<svg id="Layer_2" data-name="Layer 2" xmlns="http://www.w3.org/2000/svg" viewBox="0 0 1080 1080">
  <defs>
    <style>
      .cls-1 {
        fill: #4a94cf;
      }

      .cls-2 {
        fill: #fff;
      }
    </style>
  </defs>
  <g id="Layer_1-2" data-name="Layer 1">
    <g>
      <circle class="cls-1" cx="540" cy="540" r="540"/>
      <g>
        <path class="cls-2" d="M735.56,509.81c5.94-27.61,8.71-55.52,8.32-83.75-.03-1.76-.07-3.52-.13-5.29-.6-21.74-3.07-43.66-7.42-65.77-.02-.07-.03-.13-.04-.18-.2-1.05-.42-2.12-.65-3.17-.13-.6-.24-1.19-.36-1.79,18.16-5.07,16.98-30.93,2.73-37.11-2.92-1.27-6.38-1.71-10.34-.98,17.49-28.45-37.9-93.64-68.55-91.4t0-.02c-1.94-2.46-3.93-4.83-6.01-7.13-.92-1.04-1.87-2.07-2.83-3.08-8.19-8.62-17.26-16.06-27.04-22.39-64.15-41.44-157.97-34.06-223.08,9.77-67.23,33.21-117.44,134.84-113.67,208.25,3.26,63.37,56.29,176.38,84.29,236.26,15.48,33.1,149.62,295.74,166.49,294.32,17.69-61.8,40.61-121.43,68.76-178.93l-7.83-19.11c1.92-.04,3.87-.41,5.79-1.05,23.07-7.76,44.6-56.07,32.29-75.11,6.37-.87,12.28-3.39,17.74-7.57,10.49-8,19.3-22.09,26.44-42.23,18.69,4.04,31.9-2.21,39.61-18.75,10.37-23.96,20.29-39.77,30.47-68.55-2.89-8.85-6.21-16.93-14.96-15.23ZM434.16,502.46c-139.49-143.14,87.54-342.87,214.69-195.67,116.77,135.17-86.39,327.34-214.69,195.67Z"/>
        <path class="cls-2" d="M598.18,738.32c16.07-4.37,43.46,2.04,38.08,22.85-31.09,58.49-54.94,123.61-99.02,175.19-5.72-72.57,31.84-135.27,60.93-198.04Z"/>
        <path class="cls-2" d="M735.29,349.87c14.17.12,21.28,9.31,21.34,27.58,19.06,5.59,21.9,14.3,24.37,33.36-4.38,47.37-15.62,72.29-30.47,114.25h-38.01c21.33-58.22,26.78-113.13,22.78-175.19Z"/>
        <path class="cls-2" d="M651.5,182.3c59.53,29.84,102.94,80.58,121.87,144.72-11.96,8.09-22.46,3.46-31.5-13.89l-14.2-1.34c-15.25-36.93-44.98-60.74-68.55-91.4-9.37-5.99-10.06-8.81-1.26-6.15-31.24-15.58-58.53-43.4-6.36-31.93Z"/>
        <path class="cls-2" d="M651.5,182.3c-12.94-.75-17.79-2.73-15.19,11.34,6.3,8.88,20.54,11.4,26.58,19.22,2.71,3.51-4.02,7.18-3.77,7.51-83.33-56.64-167.21-68.19-258.97-22.85,70.16-62.44,171.35-55.34,251.35-15.23Z"/>
        <path class="cls-2" d="M674.35,685.01c-12.68,25.81-24.86,51.29-38.08,76.17-14.67-8.59-29.55-2.28-38.08-22.85,13.03-28.11,22.06-48.78,38.08-76.17,9.25-21.06,46.03,2.29,38.08,22.85Z"/>
        <path class="cls-2" d="M773.37,327.02c10.37,35.14,10.59,51.68,7.62,83.78-4.3-7.62-25.58-20.49-30.43-15.22-3.95,4.3,8.37,32.16-7.58,30.41,4.9-27.68-2.9-51.52-7.69-76.13-2.43-12.5-2.69-26.15-7.62-38.08,8.02-8.31,5.39-19.16,18.97-15.2l26.73,30.44Z"/>
        <path class="cls-2" d="M720.05,593.6c-14.12,32.64-30.36,60.18-45.7,91.4l-38.08-22.85c7.68-13.12,28.51-59.82,37.7-64.85,7.18-3.93,22.45,5.82,33.74,4.48,6.81-.81,3.28-28.62,12.35-8.18Z"/>
      </g>
    </g>
  </g>
</svg>